<?xml version="1.0" encoding="UTF-8"?>
<svg id="a" data-name="Layer 1" xmlns="http://www.w3.org/2000/svg" width="256" height="256" viewBox="0 0 256 256">
    <rect width="256" height="256" fill="#fff" stroke-width="0"/>
    <path d="m184.8701,74.6821c0,45.8682-51.5664,41.3101-51.5664,75.7827v9.6865h-33.9028v-11.1113c0-48.7173,47.293-44.7285,47.293-71.5088,0-12.5356-9.1167-19.9429-23.9312-19.9429-12.8203,0-25.356,5.9829-36.1821,18.8032l-23.6465-18.5186c15.9546-18.8032,36.4668-29.3442,62.9624-29.3442,39.0308,0,58.9736,21.937,58.9736,46.1533Zm-44.729,136.1807c0,12.5356-10.2563,23.0767-23.3613,23.0767-12.8203,0-22.792-10.541-22.792-23.0767,0-12.8203,9.9717-23.0767,22.792-23.0767,13.105,0,23.3613,10.2563,23.3613,23.0767Z"
          stroke-width="0"/>
</svg>