<?xml version="1.0" encoding="UTF-8"?><svg id="a" xmlns="http://www.w3.org/2000/svg" width="200mm" height="110mm" viewBox="0 0 566.9291 311.811"><rect y="0" width="566.9291" height="311.811" fill="#c39623" stroke-width="0"/><path d="M248.1465,70.8662l-1.4062-15.5566h2.0186l.8838,10.749c.0303.3027.0488.6729.0566,1.1113s.0186.9902.0342,1.6553h.0908c.1504-.5439.2832-1.0278.3965-1.4512s.2383-.8618.374-1.3154l3.2656-10.749h2.8799l.3857,10.749c0,.1816.0039.4233.0117.7256.0068.3027.0107.6089.0107.9185v1.1226h.0908c.1816-.6348.3408-1.1714.4766-1.6099s.2646-.8237.3857-1.1567l3.8779-10.749h1.8594l-5.8057,15.5566h-2.585l-.3398-10.4995c-.0156-.5288-.0312-1.0581-.0459-1.5874-.0156-.5288-.0381-1.0581-.0684-1.5874h-.1133c-.1055.4385-.2002.8276-.2832,1.168-.083.3398-.1699.688-.2607,1.043-.0908.3555-.1738.6616-.249.9185l-3.3564,10.5449h-2.585Z" fill="#f3ead3" stroke-width="0"/><path d="M266.6504,71.1382c-1.2246,0-2.1582-.3438-2.8008-1.0317-.6426-.6875-.9629-1.7573-.9629-3.2085,0-.6499.0449-1.3496.1357-2.0977.0908-.7485.2451-1.4854.4648-2.2114.2188-.7256.5176-1.3833.8955-1.9727.3779-.5898.8584-1.062,1.4404-1.4175.582-.355,1.2881-.5327,2.1201-.5327,1.2246,0,2.1582.3477,2.8008,1.043.6426.6958.9639,1.7769.9639,3.2427,0,.6504-.0459,1.3496-.1367,2.0977-.0908.7485-.2451,1.4819-.4648,2.1997-.2188.7183-.5176,1.3687-.8955,1.9502-.3779.5825-.8584,1.0513-1.4395,1.4062-.583.355-1.2891.5327-2.1211.5327ZM266.6504,69.4829c.5596,0,1.0244-.1699,1.3945-.5103.3711-.3403.6729-.7783.9072-1.3154.2344-.5361.4082-1.103.5215-1.7007.1133-.5972.1934-1.1641.2383-1.7007.0459-.5366.0684-.9639.0684-1.2812,0-.8765-.1514-1.5381-.4541-1.9844-.3018-.4458-.7627-.6689-1.3828-.6689-.5439,0-1.0059.1665-1.3838.499s-.6797.7598-.9062,1.2812c-.2275.5215-.4014,1.0737-.5225,1.6553-.1211.582-.2041,1.1304-.249,1.644-.0449.5142-.0684.9297-.0684,1.2476,0,.9521.1436,1.6631.4316,2.1313.2861.4688.7559.7031,1.4053.7031Z" fill="#f3ead3" stroke-width="0"/><path d="M272.8409,70.8662l1.6787-11.9282h1.4512v1.9048c.1504-.3022.3213-.6235.5098-.9639.1895-.3398.4346-.627.7373-.8613s.6807-.3516,1.1338-.3516c.2568,0,.5439.0605.8623.1812l-.2725,1.9277h-.6123c-.5898,0-1.1416.2686-1.6553.8052-.5146.5366-.8467,1.3345-.998,2.3921l-.9756,6.894h-1.8594Z" fill="#f3ead3" stroke-width="0"/><path d="M279.0996,70.8662l2.291-16.3955h1.8594l-1.3838,9.7739,4.4678-5.3066h2.2227l-4.2178,4.8984,2.7207,7.0298h-2.041l-1.9951-5.4878-1.4746,1.2471-.5889,4.2407h-1.8604Z" fill="#f3ead3" stroke-width="0"/><path d="M287.4678,74.9937c-.2725,0-.5479-.0308-.8281-.0908-.2793-.0605-.5098-.1211-.6914-.1816l.1816-1.2925h.998c.71,0,1.1104-.3628,1.2012-1.0884l1.542-11.7471h-1.043l.2266-1.6553h1.0439l.2715-1.9048c.0605-.4536.1934-.8921.3975-1.3154.2041-.4229.4941-.7671.873-1.0317.377-.2642.8691-.397,1.4736-.397.2725,0,.5479.0269.8281.0796.2793.0532.5098.1172.6914.1929l-.1816,1.2925h-.998c-.7256,0-1.1338.3628-1.2246,1.0884l-.2715,1.9956h2.0635l-.2266,1.6553h-2.0635l-1.543,11.6562c-.0605.4536-.1885.8882-.3848,1.3037-.1973.416-.4844.7598-.8623,1.0322-.3779.272-.8691.4082-1.4736.4082ZM293.5,70.8662l2.2676-16.3955h1.8594l-2.29,16.3955h-1.8369Z" fill="#f3ead3" stroke-width="0"/><path d="M301.7764,71.1382c-1.2246,0-2.1582-.3438-2.8008-1.0317-.6426-.6875-.9629-1.7573-.9629-3.2085,0-.6499.0449-1.3496.1357-2.0977.0908-.7485.2451-1.4854.4648-2.2114.2188-.7256.5176-1.3833.8955-1.9727.3779-.5898.8584-1.062,1.4404-1.4175.582-.355,1.2881-.5327,2.1201-.5327,1.2246,0,2.1582.3477,2.8008,1.043.6426.6958.9639,1.7769.9639,3.2427,0,.6504-.0459,1.3496-.1367,2.0977-.0908.7485-.2451,1.4819-.4648,2.1997-.2188.7183-.5176,1.3687-.8955,1.9502-.3779.5825-.8584,1.0513-1.4395,1.4062-.583.355-1.2891.5327-2.1211.5327ZM301.7764,69.4829c.5596,0,1.0244-.1699,1.3945-.5103.3711-.3403.6729-.7783.9072-1.3154.2344-.5361.4082-1.103.5215-1.7007.1133-.5972.1934-1.1641.2383-1.7007.0459-.5366.0684-.9639.0684-1.2812,0-.8765-.1514-1.5381-.4541-1.9844-.3018-.4458-.7627-.6689-1.3828-.6689-.5439,0-1.0059.1665-1.3838.499s-.6797.7598-.9062,1.2812c-.2275.5215-.4014,1.0737-.5225,1.6553-.1211.582-.2041,1.1304-.249,1.644-.0449.5142-.0684.9297-.0684,1.2476,0,.9521.1436,1.6631.4316,2.1313.2861.4688.7559.7031,1.4053.7031Z" fill="#f3ead3" stroke-width="0"/><path d="M309.8955,70.8662l-1.3154-11.9282h1.791l.6807,6.7124c.0303.2119.0566.4917.0791.8394s.0488.7178.0791,1.1108c.0303.3936.0459.7788.0459,1.1567h.0908c.1211-.6953.2383-1.2847.3516-1.769.1133-.4834.2305-.9297.3516-1.3379l2.1309-6.7124h2.2227l.3174,6.7124c0,.0605.0039.1514.0117.272.0068.1216.0107.2949.0107.522v2.313h.0908c.0762-.3779.1514-.7256.2275-1.0435.0752-.3174.166-.6572.2715-1.02.1055-.3633.2188-.7104.3408-1.0435l2.5166-6.7124h1.7461l-4.626,11.9282h-2.0635l-.3174-7.7554c0-.3179.0068-.6465.0225-.9868.0146-.3398.0371-.7368.0684-1.1904h-.0908c-.1367.6958-.2607,1.2852-.374,1.769s-.2383.9375-.375,1.3604l-2.1992,6.8032h-2.0859Z" fill="#f3ead3" stroke-width="0"/><path d="M162.1006,45.354v-19.4458h15.166v3.1465h-11.4805v4.7905h10.2324v3.1465h-10.2324v5.2158h11.6504v3.1465h-15.3359Z" fill="#fff" stroke-width="0"/><path d="M180.8379,45.354v-14.9102h2.8916l.2832,2.3525h.1982c.1885-.4722.4209-.9116.6943-1.3179.2744-.4062.6279-.7373,1.0635-.9922.4346-.2554.9639-.3828,1.5869-.3828.3027,0,.5811.0283.8369.085.2549.0566.4482.1138.5811.1704v3.2598h-1.0488c-.5859,0-1.1055.0806-1.5596.2407-.4531.1611-.8359.4111-1.1475.7515-.3125.3398-.5439.7651-.6953,1.2754s-.2266,1.1055-.2266,1.7856v7.6821h-3.458Z" fill="#fff" stroke-width="0"/><path d="M199.0078,45.6943c-.9639,0-1.8428-.1943-2.6367-.5811-.793-.3872-1.4355-.9683-1.9268-1.7437h-.1992l-.2832,1.9844h-2.8633v-20.4946h3.459v7.3135h.1699c.3018-.4536.6709-.8359,1.1055-1.1479s.9355-.543,1.502-.6943c.5674-.1514,1.1914-.2271,1.8711-.2271,1.1152,0,2.1025.2744,2.9619.8223.8604.5483,1.5352,1.3936,2.0273,2.5371.4912,1.1436.7373,2.6123.7373,4.4077,0,1.814-.2412,3.2979-.7236,4.4502-.4814,1.1528-1.1621,2.0034-2.041,2.5513-.8779.5479-1.9316.8223-3.1602.8223ZM197.9307,42.7178c.8506,0,1.5254-.165,2.0264-.4961.501-.3306.8604-.8359,1.0771-1.5166.2178-.6802.3262-1.54.3262-2.5796v-.3965c0-1.0581-.1084-1.9321-.3262-2.6221-.2168-.6899-.5762-1.2002-1.0771-1.5308s-1.1758-.4961-2.0264-.4961c-.5859,0-1.0918.104-1.5166.3115-.4248.2085-.7754.5103-1.0488.9072-.2744.397-.4775.8887-.6094,1.4741-.1328.5859-.1982,1.2471-.1982,1.9844v.3682c0,.9829.1172,1.8145.3545,2.4946.2354.6802.6045,1.2002,1.1055,1.5591.5.3594,1.1377.5386,1.9131.5386Z" fill="#fff" stroke-width="0"/><path d="M213.6914,45.6943c-1.0771,0-2.0225-.1187-2.835-.3545-.8125-.2363-1.4932-.562-2.041-.978-.5479-.4155-.959-.9023-1.2324-1.46-.2744-.5571-.4111-1.1665-.4111-1.8281,0-.0942.0039-.1792.0137-.2554.0098-.0752.0146-.1318.0146-.1699h3.4014v.2271c.0186.5103.1797.9209.4824,1.2329.3018.3115.6982.5342,1.1904.666.4912.1323,1.0107.1987,1.5586.1987.4912,0,.959-.0522,1.4033-.1562.4434-.1035.8125-.2734,1.1055-.5103.293-.2358.4395-.543.4395-.9209,0-.4912-.1895-.8691-.5674-1.1343-.3779-.2642-.874-.4819-1.4883-.6519s-1.2705-.3496-1.9697-.5386c-.623-.1699-1.2471-.3589-1.8711-.5669-.623-.2075-1.1855-.4722-1.6865-.7935s-.9072-.7373-1.2188-1.2476-.4678-1.1431-.4678-1.8989c0-.7373.1602-1.3794.4824-1.9277.3203-.5479.7646-1.0063,1.332-1.375.5664-.3682,1.2373-.647,2.0127-.8359.7744-.189,1.6152-.2837,2.5225-.2837.8877,0,1.6963.0947,2.4238.2837s1.3604.4585,1.8994.8076c.5381.3501.9541.7754,1.2471,1.2759.293.501.4395,1.0537.4395,1.6582,0,.1323-.0049.2646-.0146.397s-.0137.208-.0137.2266h-3.373v-.1982c0-.3589-.1094-.6665-.3262-.9214-.2178-.2554-.5293-.458-.9355-.6094s-.9121-.2271-1.5166-.2271c-.4531,0-.8506.0381-1.1904.1138s-.6191.1797-.8359.3115c-.2178.1323-.3828.2837-.4961.4536-.1143.1699-.1709.3594-.1709.5669,0,.3594.1426.6426.4258.8506s.666.3872,1.1475.5386c.4824.1514,1.0068.3115,1.5732.4819.6807.189,1.3799.3823,2.0977.5811.7188.1982,1.3848.4487,1.999.751.6133.3027,1.1094.7275,1.4883,1.2759.3779.5479.5664,1.2754.5664,2.1826,0,.8691-.165,1.6113-.4961,2.2251-.3311.6143-.793,1.1055-1.3887,1.4741-.5957.3682-1.2949.6377-2.0977.8076-.8037.1699-1.6777.2554-2.6221.2554Z" fill="#fff" stroke-width="0"/><path d="M223.2149,45.354v-20.4946h3.459v20.4946h-3.459Z" fill="#fff" stroke-width="0"/><path d="M234.1856,45.6943c-.416,0-.8936-.0522-1.4316-.1562-.5391-.104-1.0586-.2974-1.5596-.5811-.501-.2832-.9121-.7036-1.2324-1.2612-.3223-.5571-.4824-1.29-.4824-2.1968,0-1.0205.2266-1.8662.6807-2.5371.4531-.6704,1.0908-1.1997,1.9131-1.5874.8223-.3872,1.8047-.6611,2.9482-.8223,1.1426-.1602,2.3955-.2407,3.7559-.2407v-1.2188c0-.4346-.0664-.8223-.1982-1.1626-.1328-.3398-.374-.6094-.7227-.8076-.3506-.1982-.875-.2979-1.5732-.2979-.7002,0-1.248.085-1.6445.2554-.3965.1699-.6709.3779-.8223.6235s-.2266.501-.2266.7651v.397h-3.3447c-.0195-.0942-.0283-.1885-.0283-.2832v-.3403c0-.8506.2549-1.5874.7656-2.2109.5098-.6235,1.2188-1.1006,2.126-1.4316.9062-.3306,1.9551-.4961,3.1465-.4961,1.3604,0,2.4795.1895,3.3584.5669.8789.3784,1.5352.917,1.9707,1.6157.4346.6997.6514,1.5498.6514,2.5513v7.0298c0,.3594.1035.6147.3125.7656.207.1514.4336.2266.6797.2266h.9072v2.3813c-.1895.0757-.4629.165-.8223.269s-.8037.1562-1.332.1562c-.4912,0-.9307-.0811-1.3184-.2412s-.7129-.3921-.9775-.6943-.4541-.6611-.5674-1.0771h-.1699c-.3213.397-.7041.751-1.1475,1.063-.4443.3115-.9639.5527-1.5596.7227s-1.2803.2554-2.0547.2554ZM235.2344,42.8594c.5664,0,1.0723-.085,1.5166-.2549.4434-.1704.8115-.4062,1.1055-.709.292-.3018.5195-.6704.6797-1.1055.1602-.4341.2412-.9067.2412-1.417v-.6807c-1.04,0-1.998.0664-2.877.1987s-1.5781.3779-2.0977.7368c-.5205.3594-.7793.8696-.7793,1.5308,0,.3403.0801.6377.2402.8931.1602.2549.4062.4536.7373.5952.3301.1416.7412.2124,1.2334.2124Z" fill="#fff" stroke-width="0"/><path d="M246.1192,45.354v-14.9102h2.8916l.2832,1.9844h.1982c.3398-.4536.7412-.855,1.2051-1.2051.4629-.3491.9922-.6235,1.5869-.8218.5957-.1987,1.252-.2979,1.9707-.2979.9443,0,1.7803.1704,2.5088.5103.7266.3403,1.2988.8887,1.7148,1.644.415.7563.623,1.7676.623,3.0332v10.063h-3.4863v-9.4395c0-.5288-.0615-.9683-.1846-1.3179s-.3018-.6333-.5381-.8506c-.2363-.2168-.5244-.373-.8652-.4678-.3398-.0942-.7178-.1416-1.1338-.1416-.623,0-1.1855.1514-1.6865.4536s-.8975.7183-1.1904,1.2471c-.293.5293-.4395,1.1436-.4395,1.8428v8.6738h-3.458Z" fill="#fff" stroke-width="0"/><path d="M267.8604,45.6943c-1.209,0-2.2578-.2744-3.1465-.8223-.8877-.5479-1.5732-1.3984-2.0547-2.5513-.4814-1.1523-.7227-2.6362-.7227-4.4502,0-1.7954.2451-3.2642.7363-4.4077s1.1719-1.9888,2.041-2.5371c.8691-.5479,1.8525-.8223,2.9482-.8223.6807,0,1.3037.0757,1.8711.2271s1.0674.3823,1.502.6943.8037.6943,1.1055,1.1479h.1709v-7.3135h3.458v20.4946h-2.8633l-.2832-1.9844h-.1982c-.4727.7754-1.1104,1.3564-1.9141,1.7437-.8027.3867-1.6865.5811-2.6504.5811ZM268.9375,42.7178c.7939,0,1.4365-.1792,1.9277-.5386.4912-.3589.8555-.8789,1.0918-1.5591.2354-.6802.3545-1.5117.3545-2.4946v-.3682c0-.7373-.0664-1.3984-.1992-1.9844-.1318-.5854-.335-1.0771-.6094-1.4741-.2734-.397-.623-.6987-1.0488-.9072-.4248-.2075-.9307-.3115-1.5166-.3115-.8496,0-1.5264.1655-2.0264.4961-.501.3306-.8604.8408-1.0771,1.5308-.2178.6899-.3262,1.564-.3262,2.6221v.3965c0,1.0396.1084,1.8994.3262,2.5796.2168.6807.5762,1.186,1.0771,1.5166.5.3311,1.1768.4961,2.0264.4961Z" fill="#fff" stroke-width="0"/><path d="M278.4053,45.354l3.458-19.4741h14.9668l-.708,3.9688h-9.8652l-.7646,4.1953h8.6738l-.6807,3.8833h-8.6455l-1.332,7.4268h-5.1025Z" fill="#fff" stroke-width="0"/><path d="M306.2412,45.6943c-1.9092,0-3.5391-.2886-4.8896-.8647-1.3516-.5762-2.3809-1.436-3.0898-2.5796-.709-1.1431-1.0625-2.5654-1.0625-4.2661,0-.4346.0234-.8647.0703-1.2896.0469-.4253.1084-.855.1846-1.29.3584-2.1162,1.0244-3.9067,1.998-5.3716.9736-1.4644,2.2578-2.5796,3.8555-3.3447,1.5967-.7656,3.5098-1.1479,5.7402-1.1479,1.9277,0,3.5664.2881,4.918.8643,1.3506.5767,2.3809,1.4414,3.0898,2.5938.709,1.1528,1.0625,2.5894,1.0625,4.3086,0,.397-.0186.8037-.0566,1.2192s-.0947.8315-.1699,1.2471c-.3594,2.1357-1.0342,3.9399-2.0264,5.4141s-2.292,2.5938-3.8975,3.3589c-1.6064.7656-3.5156,1.1484-5.7266,1.1484ZM306.4961,41.7256c.8506,0,1.6162-.1274,2.2969-.3828.6797-.2549,1.2705-.6187,1.7715-1.0913.5-.4722.916-1.0488,1.2471-1.729.3301-.6802.5713-1.4551.7227-2.3242.0752-.4346.1367-.8032.1846-1.1055.0469-.3022.085-.5527.1133-.7515.0283-.1982.0469-.3638.0566-.4961.0088-.1318.0137-.2642.0137-.3965,0-.8125-.1553-1.5166-.4678-2.1118-.3115-.5957-.7744-1.0488-1.3887-1.3608s-1.375-.4678-2.2812-.4678c-.832,0-1.5879.123-2.2686.3687-.6797.2456-1.2705.6094-1.7715,1.0913s-.917,1.063-1.2471,1.7432c-.3311.6802-.5723,1.4458-.7227,2.2959-.0762.4536-.1377.832-.1846,1.1343s-.0801.5527-.0986.751c-.0195.1982-.0332.3643-.043.4961-.0098.1323-.0137.2646-.0137.397,0,.8125.1504,1.5117.4531,2.0977.3018.5859.7559,1.0396,1.3604,1.3604.6045.3218,1.3613.4819,2.2676.4819Z" fill="#fff" stroke-width="0"/><path d="M319.5645,45.354l3.4297-19.4741h10.9131c1.3418,0,2.4521.2129,3.3311.6377.8789.4253,1.5352,1.0063,1.9697,1.7437.4346.7368.6523,1.5874.6523,2.5513,0,1.1528-.1797,2.1733-.5391,3.061-.3594.8887-.8643,1.644-1.5166,2.2681-.6514.6235-1.4414,1.1245-2.3662,1.502l2.5508,7.7104h-5.5557l-2.0127-6.8599h-4.5645l-1.2188,6.8599h-5.0732ZM326.5371,34.7241h5.0459c.5283,0,1.0205-.1274,1.4736-.3828.4541-.2549.8223-.6187,1.1055-1.0913.2842-.4722.4258-1.0107.4258-1.6157,0-.5854-.1699-1.0488-.5107-1.3892-.3398-.3398-.8125-.5103-1.417-.5103h-5.2725l-.8506,4.9893Z" fill="#fff" stroke-width="0"/><path d="M340.7959,45.354l3.458-19.4741h7.1152l.8506,8.6743c.0371.3213.0752.7466.1133,1.2754.0371.5293.0752,1.0728.1133,1.6299.0381.5576.0664,1.063.085,1.5166h.1982c.1885-.4722.3828-.959.5811-1.46.1992-.5005.4014-1.0107.6094-1.5308.208-.5195.416-1.0063.624-1.4595l3.9404-8.646h7.4268l-3.459,19.4741h-4.9316l1.7002-9.5244c.0947-.5479.208-1.1431.3408-1.7856.1318-.6426.2637-1.2568.3965-1.8428.1318-.5854.2451-1.0488.3398-1.3887h-.1982c-.0752.208-.1748.4629-.2979.7651-.123.3027-.2402.5952-.3535.8789-.1133.2832-.2178.5293-.3125.7368l-5.6123,12.1606h-4.2803l-1.1621-12.019c-.0195-.3965-.0479-.8262-.085-1.2896-.0381-.4629-.0664-.8647-.085-1.2046h-.1982c-.0381.4912-.0811,1.0439-.1279,1.6582-.0479.6143-.1045,1.2144-.1699,1.7998-.0664.5859-.1377,1.0962-.2129,1.5308l-1.6729,9.5244h-4.7334Z" fill="#fff" stroke-width="0"/><path d="M366.7041,45.354l3.458-19.4741h16.1006l-.708,3.9688h-10.999l-.6514,3.6567h9.6094l-.6807,3.8833h-9.6094l-.709,3.9971h11.1973l-.709,3.9683h-16.2988Z" fill="#fff" stroke-width="0"/><path d="M386.5469,45.354l3.4297-19.4741h10.9131c1.3418,0,2.4521.2129,3.3311.6377.8789.4253,1.5352,1.0063,1.9697,1.7437.4346.7368.6523,1.5874.6523,2.5513,0,1.1528-.1797,2.1733-.5391,3.061-.3594.8887-.8643,1.644-1.5166,2.2681-.6514.6235-1.4414,1.1245-2.3662,1.502l2.5508,7.7104h-5.5557l-2.0127-6.8599h-4.5645l-1.2188,6.8599h-5.0732ZM393.5196,34.7241h5.0459c.5283,0,1.0205-.1274,1.4736-.3828.4541-.2549.8223-.6187,1.1055-1.0913.2842-.4722.4258-1.0107.4258-1.6157,0-.5854-.1699-1.0488-.5107-1.3892-.3398-.3398-.8125-.5103-1.417-.5103h-5.2725l-.8506,4.9893Z" fill="#fff" stroke-width="0"/><rect x="28.3465" y="87.874" width="113.3858" height="87.874" fill="#d3f3ea" stroke="#000" stroke-miterlimit="10" stroke-width="1.4173"/><path d="M66.1612,135.5273v-11.6675h1.7686v11.6675h-1.7686Z" fill="#000" stroke-width="0"/><path d="M69.9366,135.5273v-8.9463h1.3271l.1191,1.1738h.1016c.1592-.3174.3428-.5786.5527-.7827s.4482-.354.7148-.4507c.2656-.0962.5527-.1445.8584-.1445.4766,0,.873.105,1.1904.3149s.5449.564.6807,1.063h.085c.1699-.3174.3574-.5786.5615-.7827s.4385-.354.7051-.4507c.2666-.0962.5586-.1445.876-.1445.4307,0,.7998.0825,1.1055.2466.3066.1646.542.4282.7061.791.1641.3633.2471.8447.2471,1.4458v6.667h-1.582v-6.293c0-.2266-.0195-.4277-.0596-.6035s-.1016-.3232-.1875-.4424c-.085-.1191-.1953-.2095-.3311-.272s-.2949-.0938-.4766-.0938c-.2832,0-.5352.0938-.7568.2808-.2207.187-.3965.4619-.5273.8247-.1299.3633-.1953.811-.1953,1.3438v5.2554h-1.582v-6.293c0-.2266-.0195-.4277-.0596-.6035-.0391-.1758-.0986-.3232-.1787-.4424-.0791-.1191-.1865-.2095-.3223-.272-.1367-.0625-.3008-.0938-.4932-.0938-.2842,0-.5391.0938-.7656.2808-.2275.187-.4023.4619-.5273.8247-.125.3633-.1875.811-.1875,1.3438v5.2554h-1.5986Z" fill="#000" stroke-width="0"/><path d="M81.5362,138.5718v-11.9907h1.292l.1191,1.1567h.1025c.1807-.4082.4443-.7368.791-.9863.3457-.2495.7793-.3745,1.3008-.3745.5781,0,1.0625.1592,1.4541.4766s.6885.8193.8926,1.5049c.2041.6865.3066,1.5962.3066,2.73,0,1.0884-.0996,1.9756-.2979,2.6616s-.4902,1.188-.876,1.5054-.8613.4761-1.4287.4761c-.3057,0-.584-.0454-.833-.1362-.25-.0903-.4707-.2295-.6631-.4165-.1934-.187-.3516-.4165-.4766-.689h-.085v4.082h-1.5986ZM84.6651,134.2686c.3516,0,.6348-.0991.8506-.2974.2148-.1982.374-.5161.4766-.9526.1016-.436.1523-1.0005.1523-1.6924v-.5952c0-.6802-.0508-1.2383-.1523-1.6753-.1025-.436-.2617-.7593-.4766-.9692-.2158-.2095-.499-.3145-.8506-.3145-.374,0-.6748.1162-.9014.3486s-.3887.5669-.4844,1.0034c-.0967.4365-.1445.978-.1445,1.624v.5615c0,.5215.0312.9692.0938,1.3433.0615.3745.1582.6807.2891.9185.1299.2383.291.4141.4844.5273.1924.1133.4141.1699.6631.1699Z" fill="#000" stroke-width="0"/><path d="M92.2676,135.7314c-.7256,0-1.335-.1587-1.8281-.4761s-.8623-.8223-1.1055-1.5137c-.2441-.6919-.3662-1.5874-.3662-2.6875,0-1.1108.1221-2.0093.3662-2.6958.2432-.6855.6123-1.1875,1.1055-1.5049s1.1025-.4766,1.8281-.4766,1.335.1592,1.8281.4766.8643.8193,1.1143,1.5049c.249.6865.374,1.585.374,2.6958,0,1.1001-.125,1.9956-.374,2.6875-.25.6914-.6211,1.1963-1.1143,1.5137s-1.1025.4761-1.8281.4761ZM92.2676,134.3877c.3965,0,.7148-.0991.9521-.2974.2383-.1982.417-.519.5361-.9609.1191-.4424.1787-1.0205.1787-1.7349v-.6802c0-.7144-.0596-1.293-.1787-1.7349-.1191-.4424-.2979-.7656-.5361-.9697-.2373-.2041-.5557-.3062-.9521-.3062-.3857,0-.7031.1021-.9521.3062-.25.2041-.4287.5273-.5361.9697-.1074.4419-.1611,1.0205-.1611,1.7349v.6802c0,.7144.0537,1.2925.1611,1.7349.1074.4419.2861.7627.5361.9609.249.1982.5664.2974.9521.2974Z" fill="#000" stroke-width="0"/><path d="M97.0811,135.5273v-8.9463h1.3096l.1191,1.2759h.1016c.1025-.3062.2266-.5698.374-.791s.3262-.3911.5361-.5103.4443-.1787.7061-.1787c.1133,0,.2148.0059.3057.0171.0908.0117.1758.0342.2549.0679v1.6328h-.5605c-.2383,0-.4541.0483-.6465.1445-.1934.0967-.3574.2441-.4932.4424-.1367.1987-.2383.4507-.3066.7568-.0674.3062-.1016.6636-.1016,1.0718v5.0171h-1.5986Z" fill="#000" stroke-width="0"/><path d="M103.4756,135.7314c-.4199,0-.7451-.0879-.9775-.2637s-.3916-.4165-.4766-.7227-.1279-.6406-.1279-1.0034v-5.834h-.7988v-1.3267h.833l.2891-2.5513h1.2588v2.5513h1.208v1.3267h-1.208v5.7148c0,.2607.04.4536.1191.5781.0791.125.2207.187.4248.187h.6641v1.0889c-.125.0454-.2588.0874-.4004.1274-.1416.0396-.2803.0708-.416.0933-.1367.0229-.2666.0342-.3916.0342Z" fill="#000" stroke-width="0"/><rect x="428.0315" y="87.874" width="113.3858" height="87.874" fill="#d3f3ea" stroke="#000" stroke-miterlimit="10" stroke-width="1.4173"/><path d="M465.667,135.5273v-11.6675h7.042v1.5137h-5.2725v3.4355h4.6602v1.5308h-4.6602v3.6567h5.3398v1.5308h-7.1094Z" fill="#000" stroke-width="0"/><path d="M473.5586,135.5273l2.3818-4.6094-2.2451-4.3369h1.8027l1.4629,3.0444h.0674l1.4287-3.0444h1.7178l-2.2451,4.3203,2.3984,4.626h-1.8203l-1.5811-3.3335h-.085l-1.5654,3.3335h-1.7178Z" fill="#000" stroke-width="0"/><path d="M481.3994,138.5718v-11.9907h1.292l.1191,1.1567h.1025c.1807-.4082.4443-.7368.791-.9863.3457-.2495.7793-.3745,1.3008-.3745.5781,0,1.0625.1592,1.4541.4766s.6885.8193.8926,1.5049c.2041.6865.3066,1.5962.3066,2.73,0,1.0884-.0996,1.9756-.2979,2.6616s-.4902,1.188-.876,1.5054-.8613.4761-1.4287.4761c-.3057,0-.584-.0454-.833-.1362-.25-.0903-.4707-.2295-.6631-.4165-.1934-.187-.3516-.4165-.4766-.689h-.085v4.082h-1.5986ZM484.5284,134.2686c.3516,0,.6348-.0991.8506-.2974.2148-.1982.374-.5161.4766-.9526.1016-.436.1523-1.0005.1523-1.6924v-.5952c0-.6802-.0508-1.2383-.1523-1.6753-.1025-.436-.2617-.7593-.4766-.9692-.2158-.2095-.499-.3145-.8506-.3145-.374,0-.6748.1162-.9014.3486s-.3887.5669-.4844,1.0034c-.0967.4365-.1445.978-.1445,1.624v.5615c0,.5215.0312.9692.0938,1.3433.0615.3745.1582.6807.2891.9185.1299.2383.291.4141.4844.5273.1924.1133.4141.1699.6631.1699Z" fill="#000" stroke-width="0"/><path d="M492.1319,135.7314c-.7266,0-1.3359-.1587-1.8291-.4761s-.8613-.8223-1.1055-1.5137c-.2441-.6919-.3652-1.5874-.3652-2.6875,0-1.1108.1211-2.0093.3652-2.6958.2441-.6855.6123-1.1875,1.1055-1.5049s1.1025-.4766,1.8291-.4766c.7246,0,1.335.1592,1.8281.4766s.8643.8193,1.1143,1.5049c.249.6865.374,1.585.374,2.6958,0,1.1001-.125,1.9956-.374,2.6875-.25.6914-.6211,1.1963-1.1143,1.5137s-1.1035.4761-1.8281.4761ZM492.1319,134.3877c.3965,0,.7139-.0991.9521-.2974s.417-.519.5352-.9609c.1191-.4424.1787-1.0205.1787-1.7349v-.6802c0-.7144-.0596-1.293-.1787-1.7349-.1182-.4424-.2969-.7656-.5352-.9697s-.5557-.3062-.9521-.3062c-.3857,0-.7041.1021-.9531.3062s-.4277.5273-.5352.9697c-.1084.4419-.1621,1.0205-.1621,1.7349v.6802c0,.7144.0537,1.2925.1621,1.7349.1074.4419.2861.7627.5352.9609s.5674.2974.9531.2974Z" fill="#000" stroke-width="0"/><path d="M496.9444,135.5273v-8.9463h1.3096l.1191,1.2759h.1016c.1025-.3062.2266-.5698.374-.791s.3262-.3911.5361-.5103.4443-.1787.7061-.1787c.1133,0,.2148.0059.3057.0171.0908.0117.1758.0342.2549.0679v1.6328h-.5605c-.2383,0-.4541.0483-.6465.1445-.1934.0967-.3574.2441-.4932.4424-.1367.1987-.2383.4507-.3066.7568-.0674.3062-.1016.6636-.1016,1.0718v5.0171h-1.5986Z" fill="#000" stroke-width="0"/><path d="M503.3389,135.7314c-.4199,0-.7451-.0879-.9775-.2637s-.3916-.4165-.4766-.7227-.1279-.6406-.1279-1.0034v-5.834h-.7988v-1.3267h.833l.2891-2.5513h1.2588v2.5513h1.208v1.3267h-1.208v5.7148c0,.2607.04.4536.1191.5781.0791.125.2207.187.4248.187h.6641v1.0889c-.125.0454-.2588.0874-.4004.1274-.1416.0396-.2803.0708-.416.0933-.1367.0229-.2666.0342-.3916.0342Z" fill="#000" stroke-width="0"/><rect x="161.5748" y="87.874" width="113.3858" height="87.874" fill="#d3f3ea" stroke="#000" stroke-miterlimit="10" stroke-width="1.4173"/><path d="M190.3838,135.5273v-10.1367h-3.0273v-1.5308h7.8066v1.5308h-3.0273v10.1367h-1.752Z" fill="#000" stroke-width="0"/><path d="M195.5039,135.5273v-8.9463h1.3096l.1191,1.2759h.1016c.1025-.3062.2266-.5698.374-.791s.3262-.3911.5361-.5103.4443-.1787.7061-.1787c.1133,0,.2148.0059.3057.0171.0908.0117.1758.0342.2549.0679v1.6328h-.5605c-.2383,0-.4541.0483-.6465.1445-.1934.0967-.3574.2441-.4932.4424-.1367.1987-.2383.4507-.3066.7568-.0674.3062-.1016.6636-.1016,1.0718v5.0171h-1.5986Z" fill="#000" stroke-width="0"/><path d="M201.9151,135.7314c-.3057,0-.5947-.0454-.8672-.1362-.2715-.0903-.5127-.2319-.7227-.4248s-.374-.4453-.4932-.7573c-.1191-.3115-.1787-.6885-.1787-1.1309,0-.4873.0879-.9185.2637-1.2925s.4453-.6914.8076-.9526c.3633-.2607.8311-.459,1.4033-.5952.5723-.1357,1.2441-.2041,2.0156-.2041v-1.1562c0-.2949-.043-.5444-.1279-.7485s-.2207-.3628-.4082-.4761c-.1865-.1133-.4336-.1704-.7393-.1704-.374,0-.6582.0654-.8506.1958-.1934.1304-.3232.3008-.3916.5103-.0674.21-.1016.4453-.1016.7056v.1704h-1.5137c-.0117-.0566-.0176-.1108-.0176-.1616v-.1787c0-.6006.1279-1.0913.3828-1.4712.2559-.3799.6045-.6548,1.0459-.8247.4424-.1704.9473-.2554,1.5137-.2554.5791,0,1.0742.0879,1.4883.2637.4141.1763.7344.4624.9609.8589.2266.397.3408.9302.3408,1.5986v4.7114c0,.1929.042.3374.127.4336.085.0967.1963.1445.332.1445h.5098v1.0718c-.1475.0679-.3203.1274-.5186.1782-.1982.0513-.4111.0767-.6377.0767-.2725,0-.4961-.0537-.6719-.1616-.1758-.1074-.3115-.2578-.4082-.4507-.0967-.1924-.1611-.4023-.1953-.6294h-.085c-.1475.2383-.3262.4536-.5361.6465s-.4561.3433-.7393.4507c-.2842.1079-.6123.1616-.9873.1616ZM202.4258,134.3877c.2266,0,.4424-.0479.6465-.1445.2041-.0962.3848-.2378.5439-.4253.1592-.187.2861-.4165.3828-.6885.0957-.2725.1445-.584.1445-.9355v-.8677c-.6914,0-1.2471.0713-1.667.2129-.4189.1416-.7197.3428-.9014.6035-.1816.2612-.2715.5728-.2715.9355,0,.2837.042.5249.127.7231s.2129.3457.3828.4419c.1699.0967.374.1445.6123.1445Z" fill="#000" stroke-width="0"/><path d="M207.6641,135.5273v-8.9463h1.3271l.1191,1.1738h.1016c.1592-.3174.3486-.5786.5703-.7827.2207-.2041.4697-.354.748-.4507.2773-.0962.5752-.1445.8926-.1445.4531,0,.8389.0825,1.1562.2466.3174.1646.5615.4312.7314.7993.1709.3687.2559.8594.2559,1.4712v6.6333h-1.5996v-6.2759c0-.2383-.0225-.4448-.0674-.6206-.0459-.1758-.1133-.3232-.2041-.4424s-.207-.2095-.3486-.272c-.1426-.0625-.3145-.0938-.5186-.0938-.2949,0-.5615.0938-.7998.2808s-.4248.4619-.5615.8247c-.1357.3633-.2041.811-.2041,1.3438v5.2554h-1.5986Z" fill="#000" stroke-width="0"/><path d="M217.75,135.7314c-.5332,0-.9844-.0654-1.3525-.1958-.3682-.1299-.666-.3115-.8926-.5439-.2275-.2324-.3945-.5103-.502-.8335s-.1611-.6772-.1611-1.063c0-.0566.002-.1191.0078-.187s.0146-.1304.0254-.187h1.4971c-.0117.0679-.0166.1274-.0166.1782v.145c0,.3057.0566.5669.1699.7822s.2744.377.4844.4849c.21.1074.4619.1611.7568.1611.2832,0,.5273-.0508.7314-.1528s.3633-.2524.4766-.4507.1699-.4448.1699-.7397c0-.3174-.085-.5698-.2549-.7568-.1699-.1875-.3916-.3403-.6641-.4595-.2715-.1191-.5605-.2407-.8672-.3657-.2715-.1021-.5469-.2183-.8242-.3486-.2783-.1299-.5303-.2944-.7568-.4932-.2275-.1982-.4082-.4448-.5449-.7397-.1357-.2949-.2041-.6689-.2041-1.1226,0-.4082.0684-.7651.2041-1.0713.1367-.3062.332-.564.5869-.7739s.5557-.3657.9014-.4678.7227-.1533,1.1309-.1533c.4307,0,.8135.0513,1.1484.1533.334.1021.6182.2524.8506.4507s.4082.4395.5273.7227c.1182.2837.1777.5952.1777.9355,0,.0908-.0029.1816-.0078.272-.0059.0908-.0146.1704-.0254.2383h-1.4805v-.3574c0-.2603-.0479-.4761-.1445-.646-.0957-.1699-.2354-.2979-.416-.3828-.1816-.085-.4033-.1274-.6641-.1274-.2148,0-.4023.0254-.5605.0767-.1592.0508-.2891.1304-.3916.2378-.1016.1079-.1758.23-.2207.3657-.0459.1362-.0684.2837-.0684.4424,0,.272.0732.4932.2207.6631.1475.1704.3438.3091.5869.417.2441.1079.5078.2183.791.3315.2832.1021.5752.2183.876.3486s.5811.292.8418.4849.4678.4419.6211.748.2295.7031.2295,1.1909c0,.4873-.0742.9072-.2207,1.2583-.1475.3516-.3545.6406-.6211.8677-.2666.2266-.5811.394-.9443.5015-.3623.1079-.7646.1616-1.207.1616Z" fill="#000" stroke-width="0"/><path d="M222.461,135.5273v-7.6196h-.9697v-1.3267h.9697v-1.4453c0-.4648.0615-.8506.1865-1.1567s.3174-.5327.5781-.6802.5957-.2212,1.0039-.2212c.1016,0,.2178.0059.3486.0171.1299.0112.2607.0312.3916.0596.1299.0283.2402.0596.3311.0933v1.1567h-.6631c-.2158,0-.3682.0654-.459.1953-.0908.1309-.1367.3091-.1367.5361v1.4453h1.2588v1.3267h-1.2588v7.6196h-1.5811Z" fill="#000" stroke-width="0"/><path d="M229.2979,135.7314c-.7256,0-1.335-.1587-1.8281-.4761s-.8623-.8223-1.1055-1.5137c-.2441-.6919-.3662-1.5874-.3662-2.6875,0-1.1108.1221-2.0093.3662-2.6958.2432-.6855.6123-1.1875,1.1055-1.5049s1.1025-.4766,1.8281-.4766,1.335.1592,1.8281.4766.8643.8193,1.1143,1.5049c.249.6865.374,1.585.374,2.6958,0,1.1001-.125,1.9956-.374,2.6875-.25.6914-.6211,1.1963-1.1143,1.5137s-1.1025.4761-1.8281.4761ZM229.2979,134.3877c.3965,0,.7148-.0991.9521-.2974.2383-.1982.417-.519.5361-.9609.1191-.4424.1787-1.0205.1787-1.7349v-.6802c0-.7144-.0596-1.293-.1787-1.7349-.1191-.4424-.2979-.7656-.5361-.9697-.2373-.2041-.5557-.3062-.9521-.3062-.3857,0-.7031.1021-.9521.3062-.25.2041-.4287.5273-.5361.9697-.1074.4419-.1611,1.0205-.1611,1.7349v.6802c0,.7144.0537,1.2925.1611,1.7349.1074.4419.2861.7627.5361.9609.249.1982.5664.2974.9521.2974Z" fill="#000" stroke-width="0"/><path d="M234.1114,135.5273v-8.9463h1.3096l.1191,1.2759h.1016c.1025-.3062.2266-.5698.374-.791s.3262-.3911.5361-.5103.4443-.1787.7061-.1787c.1133,0,.2148.0059.3057.0171.0908.0117.1758.0342.2549.0679v1.6328h-.5605c-.2383,0-.4541.0483-.6465.1445-.1934.0967-.3574.2441-.4932.4424-.1367.1987-.2383.4507-.3066.7568-.0674.3062-.1016.6636-.1016,1.0718v5.0171h-1.5986Z" fill="#000" stroke-width="0"/><path d="M238.7705,135.5273v-8.9463h1.3271l.1191,1.1738h.1016c.1592-.3174.3428-.5786.5527-.7827s.4482-.354.7148-.4507c.2656-.0962.5527-.1445.8584-.1445.4766,0,.873.105,1.1904.3149s.5449.564.6807,1.063h.085c.1699-.3174.3574-.5786.5615-.7827s.4385-.354.7051-.4507c.2666-.0962.5586-.1445.876-.1445.4307,0,.7998.0825,1.1055.2466.3066.1646.542.4282.7061.791.1641.3633.2471.8447.2471,1.4458v6.667h-1.582v-6.293c0-.2266-.0195-.4277-.0596-.6035s-.1016-.3232-.1875-.4424c-.085-.1191-.1953-.2095-.3311-.272s-.2949-.0938-.4766-.0938c-.2832,0-.5352.0938-.7568.2808-.2207.187-.3965.4619-.5273.8247-.1299.3633-.1953.811-.1953,1.3438v5.2554h-1.582v-6.293c0-.2266-.0195-.4277-.0596-.6035-.0391-.1758-.0986-.3232-.1787-.4424-.0791-.1191-.1865-.2095-.3223-.272-.1367-.0625-.3008-.0938-.4932-.0938-.2842,0-.5391.0938-.7656.2808-.2275.187-.4023.4619-.5273.8247-.125.3633-.1875.811-.1875,1.3438v5.2554h-1.5986Z" fill="#000" stroke-width="0"/><rect x="294.8032" y="87.874" width="113.3858" height="87.874" fill="#d3f3ea" stroke="#000" stroke-miterlimit="10" stroke-width="1.4173"/><path d="M330.1514,135.5273v-11.6675h4.3203c.8389,0,1.5049.1445,1.998.4336.4941.2896.8447.689,1.0547,1.1992s.3145,1.0884.3145,1.7349c0,.7822-.1387,1.46-.416,2.0322-.2783.5728-.6719.9897-1.1826,1.2505l2.0586,5.0171h-1.8711l-1.8535-4.541h-2.6533v4.541h-1.7695ZM331.9209,129.4727h2.3809c.6123,0,1.0566-.1899,1.335-.5698.2773-.3799.417-.9102.417-1.5903,0-.4194-.0566-.7739-.1699-1.063-.1143-.2891-.3037-.5073-.5703-.6548-.2666-.147-.6318-.2212-1.0967-.2212h-2.2959v4.0991Z" fill="#000" stroke-width="0"/><path d="M342.4141,135.7314c-.7598,0-1.3799-.1616-1.8623-.4849-.4814-.3232-.8359-.8306-1.0625-1.522-.2275-.6914-.3408-1.582-.3408-2.6704,0-1.1226.1191-2.0264.3574-2.7129.2383-.6855.6035-1.1846,1.0967-1.4966.4932-.3115,1.126-.4678,1.8965-.4678.6807,0,1.2471.1392,1.7012.417.4531.2778.793.731,1.0205,1.3604.2266.6294.3398,1.4712.3398,2.5259v.7314h-4.7793c.0117.6914.0684,1.2583.1699,1.7007.1025.4419.2725.771.5107.9863s.5615.3232.9697.3232c.2373,0,.4473-.0396.6289-.1191.1816-.0791.3369-.1982.4678-.3569.1299-.1587.2324-.3628.3057-.6123.0742-.2495.1162-.5444.1279-.8848h1.5645c-.0107.5332-.085,1.0063-.2207,1.4204s-.3379.7568-.6035,1.0288c-.2666.2725-.5928.479-.9785.6211-.3857.1416-.8223.2124-1.3096.2124ZM340.7989,130.3398h3.1123c0-.4761-.0283-.8813-.085-1.2158-.0576-.3345-.1426-.6094-.2559-.8252-.1133-.2148-.2627-.3711-.4502-.4678-.1875-.0962-.4111-.1445-.6719-.1445-.3975,0-.7119.105-.9443.3149s-.4053.5103-.5186.9014-.1758.8701-.1865,1.437Z" fill="#000" stroke-width="0"/><path d="M348.5371,135.5273l-2.2617-8.9463h1.666l1.0889,4.8472c.0449.1479.0908.3521.1357.6123.0459.2612.0967.5332.1533.8164.0566.2837.1025.5444.1357.7827h.1025c.0342-.1133.0703-.3032.1104-.5698s.085-.5527.1357-.8589c.0518-.3062.1055-.5669.1621-.7827l1.1055-4.8472h1.582l-2.2451,8.9463h-1.8711Z" fill="#000" stroke-width="0"/><path d="M353.6905,124.9482v-1.7178h1.5986v1.7178h-1.5986ZM353.6905,135.5273v-8.9463h1.5986v8.9463h-1.5986Z" fill="#000" stroke-width="0"/><path d="M360.085,135.7314c-.7598,0-1.3799-.1616-1.8623-.4849-.4814-.3232-.8359-.8306-1.0625-1.522-.2275-.6914-.3408-1.582-.3408-2.6704,0-1.1226.1191-2.0264.3574-2.7129.2383-.6855.6035-1.1846,1.0967-1.4966.4932-.3115,1.126-.4678,1.8965-.4678.6807,0,1.2471.1392,1.7012.417.4531.2778.793.731,1.0205,1.3604.2266.6294.3398,1.4712.3398,2.5259v.7314h-4.7793c.0117.6914.0684,1.2583.1699,1.7007.1025.4419.2725.771.5107.9863s.5615.3232.9697.3232c.2373,0,.4473-.0396.6289-.1191.1816-.0791.3369-.1982.4678-.3569.1299-.1587.2324-.3628.3057-.6123.0742-.2495.1162-.5444.1279-.8848h1.5645c-.0107.5332-.085,1.0063-.2207,1.4204s-.3379.7568-.6035,1.0288c-.2666.2725-.5928.479-.9785.6211-.3857.1416-.8223.2124-1.3096.2124ZM358.4698,130.3398h3.1123c0-.4761-.0283-.8813-.085-1.2158-.0576-.3345-.1426-.6094-.2559-.8252-.1133-.2148-.2627-.3711-.4502-.4678-.1875-.0962-.4111-.1445-.6719-.1445-.3975,0-.7119.105-.9443.3149s-.4053.5103-.5186.9014-.1758.8701-.1865,1.437Z" fill="#000" stroke-width="0"/><path d="M365.9356,135.5273l-2.0068-8.9463h1.6328l.918,4.8306c.0342.1812.0713.394.1104.6377.04.2437.0771.479.1113.7056.0332.2271.0566.4141.0674.5615h.1025c.0342-.1929.0674-.4141.1016-.6636.0342-.249.0684-.4873.1025-.7144.0342-.2266.0615-.4082.085-.5439l.8672-4.8135h1.8027l.8672,4.8306c.0342.1699.0684.3711.1025.6035s.0674.4653.1016.6973c.0342.2329.0625.4341.085.604h.1025c.0342-.1812.0684-.3911.1016-.6294.0342-.2383.0713-.4702.1113-.6973.0391-.2266.0703-.4194.0928-.5781l.9189-4.8306h1.5137l-2.0068,8.9463h-1.7178l-.8506-4.6943c-.0342-.1924-.0713-.4165-.1104-.6719-.04-.2549-.0771-.5098-.1104-.7651-.0342-.2549-.0684-.479-.1025-.6719h-.1016c-.0117.1592-.0371.3604-.0771.604s-.0791.4961-.1191.7568-.082.5103-.127.748l-.8506,4.6943h-1.7178Z" fill="#000" stroke-width="0"/><rect x="226.7717" y="198.4252" width="113.3858" height="87.874" fill="#d3f3ea" stroke="#000" stroke-miterlimit="10" stroke-width="1.4173"/><path d="M267.8272,236.0781c-.9863,0-1.8008-.2188-2.4414-.6553s-1.1113-1.0996-1.4111-1.9893c-.3008-.8906-.4512-2.0215-.4512-3.3936,0-2.0752.375-3.5996,1.123-4.5752.748-.9746,1.8652-1.4629,3.3506-1.4629.8271,0,1.5332.1592,2.1172.4766s1.0352.8105,1.3525,1.4795.4756,1.5254.4756,2.5684h-1.7344c0-.6465-.082-1.1963-.2471-1.6494-.1641-.4541-.4141-.7939-.748-1.0205-.335-.2266-.7627-.3408-1.2842-.3408-.5674,0-1.0459.1445-1.4375.4336-.3906.29-.6826.7373-.875,1.3438-.1934.6074-.29,1.3867-.29,2.3389v.8672c0,.9414.0938,1.7129.2812,2.3135.1865.6006.4707,1.043.8506,1.3262.3799.2842.8584.4258,1.4365.4258.5107,0,.9414-.1104,1.293-.332.3516-.2207.6152-.5527.791-.9951s.2637-.9971.2637-1.667h1.7002c0,1.0439-.1699,1.8965-.5098,2.5605-.3398.6631-.8164,1.1533-1.4287,1.4707s-1.3379.4766-2.1768.4766Z" fill="#000" stroke-width="0"/><path d="M273.4561,235.874v-8.9463h1.3096l.1191,1.2754h.1025c.1016-.3057.2266-.5693.374-.791.1475-.2207.3252-.3906.5352-.5098s.4453-.1787.7061-.1787c.1133,0,.2158.0059.3066.0166.0898.0117.1758.0342.2549.0684v1.6328h-.5615c-.2383,0-.4531.0479-.6465.1445-.1924.0967-.3564.2441-.4932.4424-.1357.1982-.2383.4502-.3057.7568-.0684.3057-.1025.6631-.1025,1.0713v5.0176h-1.5986Z" fill="#000" stroke-width="0"/><path d="M280.9395,236.0781c-.7598,0-1.3799-.1621-1.8623-.4854-.4814-.3232-.8359-.8301-1.0625-1.5215-.2275-.6914-.3408-1.582-.3408-2.6709,0-1.1221.1191-2.0264.3574-2.7129.2383-.6855.6035-1.1846,1.0967-1.4961s1.126-.4678,1.8965-.4678c.6807,0,1.2471.1387,1.7012.417.4531.2773.793.7305,1.0205,1.3604.2266.6289.3398,1.4707.3398,2.5254v.7314h-4.7793c.0117.6914.0684,1.2588.1699,1.7012.1025.4414.2725.7705.5107.9863.2383.2148.5615.3232.9697.3232.2373,0,.4473-.04.6289-.1191s.3369-.1982.4678-.3574c.1299-.1582.2324-.3623.3057-.6123.0742-.249.1162-.5439.1279-.8848h1.5645c-.0107.5332-.085,1.0068-.2207,1.4209s-.3379.7568-.6035,1.0283c-.2666.2725-.5928.4795-.9785.6211s-.8223.2129-1.3096.2129ZM279.3242,230.6865h3.1123c0-.4766-.0283-.8818-.085-1.2158-.0576-.335-.1426-.6094-.2559-.8252-.1133-.2148-.2627-.3711-.4502-.4678s-.4111-.1445-.6719-.1445c-.3975,0-.7119.1045-.9443.3145s-.4053.5107-.5186.9014c-.1133.3916-.1758.8701-.1865,1.4375Z" fill="#000" stroke-width="0"/><path d="M287.4707,236.0781c-.3066,0-.5957-.0459-.8672-.1367-.2725-.0898-.5137-.2314-.7227-.4248-.21-.1924-.375-.4453-.4932-.7568-.1191-.3115-.1787-.6885-.1787-1.1309,0-.4873.0869-.9189.2637-1.293.1748-.374.4443-.6914.8076-.9521.3623-.2607.8301-.459,1.4033-.5957.5723-.1357,1.2441-.2041,2.0146-.2041v-1.1562c0-.2949-.042-.5439-.127-.748s-.2217-.3633-.4082-.4766c-.1875-.1133-.4336-.1699-.7402-.1699-.374,0-.6572.0654-.8506.1953-.1924.1309-.3223.3008-.3906.5107s-.1025.4453-.1025.7051v.1709h-1.5137c-.0107-.0566-.0166-.1113-.0166-.1621v-.1787c0-.6006.1279-1.0908.3828-1.4707s.6035-.6553,1.0459-.8252.9463-.2549,1.5137-.2549c.5781,0,1.0742.0879,1.4883.2637s.7334.4619.9609.8584c.2266.3975.3398.9307.3398,1.5986v4.7119c0,.1924.043.3369.1279.4336s.1953.1445.3311.1445h.5107v1.0713c-.1475.0684-.3203.1279-.5186.1787-.1992.0508-.4111.0762-.6377.0762-.2725,0-.4961-.0537-.6719-.1611s-.3125-.2578-.4082-.4512c-.0967-.1924-.1621-.4023-.1963-.6289h-.085c-.1475.2383-.3262.4531-.5352.6465-.21.1924-.457.3428-.7402.4502-.2832.1084-.6123.1621-.9863.1621ZM287.9805,234.7344c.2275,0,.4424-.0479.6465-.1445s.3857-.2383.5449-.4258c.1582-.1865.2861-.416.3818-.6885.0967-.2725.1445-.584.1445-.9355v-.8672c-.6914,0-1.2471.0713-1.666.2129-.4199.1416-.7207.3428-.9014.6035-.1816.2607-.2725.5723-.2725.9355,0,.2832.043.5244.1279.7227s.2119.3457.3818.4424c.1709.0967.375.1445.6123.1445Z" fill="#000" stroke-width="0"/><path d="M294.9541,236.0781c-.4199,0-.7461-.0879-.9785-.2637s-.3906-.417-.4756-.7227c-.085-.3066-.1279-.6406-.1279-1.0039v-5.834h-.7998v-1.3262h.834l.2891-2.5518h1.2588v2.5518h1.207v1.3262h-1.207v5.7148c0,.2607.0391.4541.1191.5781.0791.125.2207.1875.4248.1875h.6631v1.0889c-.125.0449-.2578.0869-.3994.127s-.2803.0713-.417.0938c-.1357.0225-.2666.0342-.3906.0342Z" fill="#000" stroke-width="0"/><path d="M300.3457,236.0781c-.7598,0-1.3809-.1621-1.8623-.4854-.4824-.3232-.8369-.8301-1.0635-1.5215s-.3398-1.582-.3398-2.6709c0-1.1221.1191-2.0264.3574-2.7129.2373-.6855.6035-1.1846,1.0967-1.4961s1.125-.4678,1.8965-.4678c.6797,0,1.2471.1387,1.7002.417.4541.2773.7939.7305,1.0205,1.3604.2266.6289.3408,1.4707.3408,2.5254v.7314h-4.7793c.0107.6914.0674,1.2588.1699,1.7012.1016.4414.2725.7705.5098.9863.2383.2148.5615.3232.9697.3232.2383,0,.4482-.04.6299-.1191.1807-.0791.3369-.1982.4668-.3574.1309-.1582.2324-.3623.3066-.6123.0732-.249.1162-.5439.1279-.8848h1.5645c-.0117.5332-.085,1.0068-.2217,1.4209-.1357.4141-.3369.7568-.6035,1.0283-.2666.2725-.5928.4795-.9775.6211-.3857.1416-.8223.2129-1.3096.2129ZM298.7295,230.6865h3.1123c0-.4766-.0283-.8818-.085-1.2158-.0566-.335-.1416-.6094-.2549-.8252-.1133-.2148-.2637-.3711-.4512-.4678-.1865-.0967-.4111-.1445-.6709-.1445-.3975,0-.7119.1045-.9443.3145s-.4053.5107-.5186.9014c-.1133.3916-.1758.8701-.1875,1.4375Z" fill="#000" stroke-width="0"/><path d="M258.1065,256.2832v-11.667h4.3203c.8389,0,1.5049.1445,1.998.4336.4941.2891.8447.6885,1.0547,1.1992.21.5098.3145,1.0879.3145,1.7344,0,.7822-.1387,1.46-.416,2.0322-.2783.5732-.6719.9902-1.1826,1.251l2.0586,5.0166h-1.8711l-1.8535-4.541h-2.6533v4.541h-1.7695ZM259.876,250.2285h2.3809c.6123,0,1.0566-.1895,1.335-.5693.2773-.3799.417-.9102.417-1.5908,0-.4189-.0566-.7734-.1699-1.0625-.1143-.2891-.3037-.5078-.5703-.6553-.2666-.1465-.6318-.2207-1.0967-.2207h-2.2959v4.0986Z" fill="#000" stroke-width="0"/><path d="M270.3692,256.4873c-.7598,0-1.3799-.1611-1.8623-.4844-.4814-.3232-.8359-.8311-1.0625-1.5225-.2275-.6914-.3408-1.582-.3408-2.6699,0-1.123.1191-2.0264.3574-2.7129.2383-.6855.6035-1.1846,1.0967-1.4971.4932-.3115,1.126-.4678,1.8965-.4678.6807,0,1.2471.1396,1.7012.417.4531.2783.793.7314,1.0205,1.3604.2266.6299.3398,1.4717.3398,2.5264v.7314h-4.7793c.0117.6914.0684,1.2578.1699,1.7002.1025.4424.2725.7715.5107.9863.2383.2158.5615.3232.9697.3232.2373,0,.4473-.0391.6289-.1191.1816-.0791.3369-.1982.4678-.3564.1299-.1592.2324-.3633.3057-.6123.0742-.25.1162-.5449.1279-.8848h1.5645c-.0107.5332-.085,1.0059-.2207,1.4199s-.3379.7568-.6035,1.0293c-.2666.2725-.5928.4785-.9785.6211-.3857.1416-.8223.2119-1.3096.2119ZM268.7539,251.0957h3.1123c0-.4756-.0283-.8809-.085-1.2158-.0576-.334-.1426-.6094-.2559-.8252-.1133-.2148-.2627-.3711-.4502-.4678-.1875-.0957-.4111-.1445-.6719-.1445-.3975,0-.7119.1055-.9443.3154s-.4053.5098-.5186.9014c-.1133.3906-.1758.8701-.1865,1.4365Z" fill="#000" stroke-width="0"/><path d="M276.4922,256.2832l-2.2617-8.9463h1.666l1.0889,4.8477c.0449.1475.0908.3516.1357.6123.0459.2607.0967.5332.1533.8164s.1025.5439.1357.7822h.1025c.0342-.1133.0703-.3027.1104-.5693s.085-.5527.1357-.8594c.0518-.3057.1055-.5664.1621-.7822l1.1055-4.8477h1.582l-2.2451,8.9463h-1.8711Z" fill="#000" stroke-width="0"/><path d="M281.6455,245.7041v-1.7178h1.5986v1.7178h-1.5986ZM281.6455,256.2832v-8.9463h1.5986v8.9463h-1.5986Z" fill="#000" stroke-width="0"/><path d="M287.5127,256.4873c-.5332,0-.9834-.0654-1.3516-.1953-.3691-.1299-.666-.3115-.8936-.5439-.2266-.2324-.3936-.5107-.501-.834-.1084-.3232-.1621-.6768-.1621-1.0625,0-.0566.0029-.1191.0088-.1875.0059-.0674.0137-.1299.0254-.1865h1.4971c-.0117.0674-.0176.127-.0176.1777v.1455c0,.3057.0566.5664.1699.7822.1133.2148.2754.377.4854.4844.209.1074.4619.1611.7568.1611.2832,0,.5273-.0508.7314-.1523.2041-.1025.3623-.2529.4756-.4512s.1699-.4443.1699-.7393c0-.3174-.085-.5703-.2549-.7568-.1699-.1875-.3906-.3408-.6631-.46s-.5615-.2402-.8672-.3652c-.2725-.1025-.5479-.2188-.8252-.3486-.2783-.1299-.5303-.2949-.7568-.4932s-.4082-.4453-.5439-.7402c-.1367-.2949-.2041-.6689-.2041-1.1221,0-.4082.0674-.7656.2041-1.0713.1357-.3066.3311-.5645.5869-.7744.2549-.21.5547-.3652.9014-.4678.3457-.1016.7227-.1533,1.1309-.1533.4307,0,.8135.0518,1.1475.1533.335.1025.6182.2529.8506.4512s.4082.4395.5273.7227.1787.5947.1787.9355c0,.0908-.0029.1816-.0088.2715-.0059.0908-.0137.1709-.0254.2383h-1.4795v-.3574c0-.2598-.0488-.4756-.1445-.6455-.0967-.1699-.2354-.2979-.417-.3828s-.4023-.1279-.6631-.1279c-.2158,0-.4023.0254-.5615.0771-.1582.0508-.2891.1299-.3906.2373-.1025.1084-.1758.2305-.2217.3662-.0449.1357-.0674.2832-.0674.4424,0,.2715.0732.4932.2207.6631s.3428.3086.5869.417c.2432.1074.5068.2178.791.3311.2832.1025.5752.2188.876.3486.2998.1309.5801.292.8418.4854.2607.1924.4678.4414.6201.748.1533.3057.2305.7031.2305,1.1904s-.0742.9072-.2217,1.2588-.3545.6406-.6211.8672-.5811.3945-.9434.502c-.3633.1074-.7656.1611-1.208.1611Z" fill="#000" stroke-width="0"/><path d="M291.918,245.7041v-1.7178h1.5986v1.7178h-1.5986ZM291.918,256.2832v-8.9463h1.5986v8.9463h-1.5986Z" fill="#000" stroke-width="0"/><path d="M298.3467,256.4873c-.7266,0-1.3359-.1582-1.8291-.4756s-.8613-.8223-1.1055-1.5137c-.2441-.6924-.3652-1.5879-.3652-2.6875,0-1.1113.1211-2.0098.3652-2.6963.2441-.6855.6123-1.1875,1.1055-1.5049s1.1025-.4766,1.8291-.4766c.7246,0,1.335.1592,1.8281.4766s.8643.8193,1.1143,1.5049c.249.6865.374,1.585.374,2.6963,0,1.0996-.125,1.9951-.374,2.6875-.25.6914-.6211,1.1963-1.1143,1.5137s-1.1035.4756-1.8281.4756ZM298.3467,255.1436c.3965,0,.7139-.0986.9521-.2969s.417-.5195.5352-.9609c.1191-.4424.1787-1.0205.1787-1.7354v-.6797c0-.7148-.0596-1.293-.1787-1.7354-.1182-.4424-.2969-.7656-.5352-.9697s-.5557-.3057-.9521-.3057c-.3857,0-.7041.1016-.9531.3057s-.4277.5273-.5352.9697c-.1084.4424-.1621,1.0205-.1621,1.7354v.6797c0,.7148.0537,1.293.1621,1.7354.1074.4414.2861.7627.5352.9609s.5674.2969.9531.2969Z" fill="#000" stroke-width="0"/><path d="M303.1592,256.2832v-8.9463h1.3271l.1191,1.1738h.1016c.1592-.3174.3486-.5781.5703-.7822.2207-.2041.4697-.3545.748-.4512.2773-.0957.5752-.1445.8926-.1445.4531,0,.8389.083,1.1562.2471s.5615.4307.7314.7988c.1709.3691.2559.8594.2559,1.4717v6.6328h-1.5996v-6.2754c0-.2383-.0225-.4453-.0674-.6211-.0459-.1758-.1133-.3232-.2041-.4424s-.207-.209-.3486-.2715c-.1426-.0625-.3145-.0938-.5186-.0938-.2949,0-.5615.0938-.7998.2803-.2383.1875-.4248.4619-.5615.8252-.1357.3633-.2041.8105-.2041,1.3438v5.2549h-1.5986Z" fill="#000" stroke-width="0"/><line x1="141.7323" y1="130.3937" x2="151.5295" y2="130.3937" fill="none" stroke="#000" stroke-miterlimit="10" stroke-width="1.4173"/><polygon points="149.2829 133.6879 161.5748 130.3937 149.2829 127.0995 149.2829 133.6879" fill="#000" stroke-width="0"/><polyline points="226.7716 243.7795 187.0866 243.7795 187.0866 185.7933" fill="none" stroke="#000" stroke-miterlimit="10" stroke-width="1.4173"/><polygon points="190.3808 188.04 187.0866 175.748 183.7924 188.04 190.3808 188.04" fill="#000" stroke-width="0"/><line x1="274.9606" y1="130.3937" x2="284.7579" y2="130.3937" fill="none" stroke="#000" stroke-miterlimit="10" stroke-width="1.4173"/><polygon points="282.5112 133.6879 294.8031 130.3937 282.5112 127.0995 282.5112 133.6879" fill="#000" stroke-width="0"/><line x1="408.189" y1="130.3937" x2="417.9862" y2="130.3937" fill="none" stroke="#000" stroke-miterlimit="10" stroke-width="1.4173"/><polygon points="415.7395 133.6879 428.0315 130.3937 415.7395 127.0995 415.7395 133.6879" fill="#000" stroke-width="0"/><polyline points="382.6772 175.748 382.6772 240.9449 350.2027 240.9449" fill="none" stroke="#000" stroke-miterlimit="10" stroke-width="1.4173"/><polygon points="352.4494 237.6507 340.1575 240.9449 352.4494 244.239 352.4494 237.6507" fill="#000" stroke-width="0"/></svg>