<?xml version="1.0" encoding="UTF-8"?><svg id="a" xmlns="http://www.w3.org/2000/svg" width="200mm" height="80mm" viewBox="0 0 566.9291 226.7717"><rect width="566.9291" height="226.7717" fill="#25c194" stroke-width="0"/><rect x="28.3465" y="110.5512" width="113.3858" height="87.874" fill="#e7d5a7" stroke="#312609" stroke-miterlimit="10" stroke-width="1.4173"/><path d="M58.0313,158.4089c-.5332,0-1.0283-.0566-1.4883-.1699-.459-.1133-.8584-.3037-1.1992-.5703-.3398-.2666-.6064-.626-.7988-1.0801-.1934-.4531-.2891-1.0205-.2891-1.7002v-.3232h1.7344v.3398c0,.4648.0742.8447.2217,1.1396.1465.2949.3711.5098.6719.6465.2998.1357.6719.2041,1.1133.2041.25,0,.4795-.0225.6895-.0684.209-.0449.3965-.1162.5605-.2129.165-.0957.3066-.2148.4258-.3564s.21-.3125.2715-.5107c.0625-.1982.0938-.4219.0938-.6719,0-.3516-.0791-.6465-.2383-.8838-.1582-.2383-.3711-.4365-.6377-.5957-.2666-.1582-.5635-.3027-.8926-.4336-.3291-.1299-.6689-.2607-1.0205-.3916-.3516-.1299-.6943-.2773-1.0293-.4414-.334-.165-.6348-.3691-.9014-.6123-.2666-.2441-.4756-.542-.6289-.8936s-.2295-.7822-.2295-1.292c0-.5449.0908-1.0205.2715-1.4287.1816-.4082.4346-.7432.7568-1.0039.3232-.2607.7061-.4531,1.1484-.5781s.9189-.1875,1.4287-.1875.9805.0596,1.4121.1787c.4307.1191.8018.3066,1.1133.5615s.5557.5869.7314.9951.2637.9072.2637,1.4961v.2725h-1.7178v-.2549c0-.374-.0654-.6895-.1953-.9443-.1309-.2549-.3262-.4502-.5869-.5869-.2607-.1357-.5898-.2041-.9863-.2041-.374,0-.7002.0518-.9785.1533-.2773.1025-.4932.2666-.6455.4932-.1533.2275-.2305.5166-.2305.8672,0,.3408.0801.624.2383.8506.1592.2275.3711.4199.6377.5781.2666.1592.5645.3008.8936.4258.3281.125.6689.252,1.0205.3828.3506.1299.6914.2773,1.0205.4414.3281.165.6289.3721.9014.6211.2715.25.4844.5527.6377.9102s.2295.791.2295,1.3008c0,.8398-.1592,1.5195-.4766,2.041s-.7627.9014-1.335,1.1396-1.2334.3574-1.9814.3574Z" fill="#000" stroke-width="0"/><path d="M65.3448,158.4089c-.6807,0-1.208-.1934-1.582-.5781-.374-.3857-.5605-1.0322-.5605-1.9395v-6.6328h1.5811v6.2588c0,.2383.0225.4453.0684.6211.0449.1758.1133.3262.2041.4502.0908.125.21.2158.3574.2725.1465.0566.3174.085.5098.085.3066,0,.5781-.0908.8164-.2725.2383-.1807.4248-.4561.5615-.8242.1357-.3691.2041-.8193.2041-1.3525v-5.2383h1.582v8.9463h-1.3105l-.1357-1.1904h-.085c-.1592.3174-.3486.5811-.5693.79-.2217.21-.4707.3633-.749.46-.2773.0957-.5752.1445-.8926.1445Z" fill="#000" stroke-width="0"/><path d="M70.9229,161.2488v-11.9902h1.293l.1191,1.1562h.1016c.1816-.4082.4453-.7363.791-.9863.3457-.249.7793-.374,1.3008-.374.5791,0,1.0635.1592,1.4541.4766.3916.3174.6895.8193.8936,1.5049.2041.6865.3057,1.5957.3057,2.7295,0,1.0889-.0986,1.9756-.2969,2.6621-.1992.6855-.4912,1.1875-.876,1.5049-.3857.3174-.8623.4766-1.4287.4766-.3066,0-.584-.0459-.834-.1367-.249-.0898-.4707-.2295-.6631-.416-.1934-.1875-.3516-.417-.4766-.6895h-.085v4.082h-1.5986ZM74.0528,156.946c.3516,0,.6348-.0996.8506-.2979.2148-.1982.374-.5156.4756-.9521.1025-.4365.1533-1.001.1533-1.6924v-.5957c0-.6797-.0508-1.2383-.1533-1.6748-.1016-.4365-.2607-.7598-.4756-.9697-.2158-.209-.499-.3145-.8506-.3145-.374,0-.6748.1162-.9014.3486-.2275.2324-.3887.5674-.4854,1.0039-.0957.4365-.1445.9775-.1445,1.624v.5615c0,.5215.0312.9688.0938,1.3428.0625.375.1592.6807.2891.9189.1309.2383.292.4141.4854.5273.1924.1133.4131.1699.6631.1699Z" fill="#000" stroke-width="0"/><path d="M81.6211,158.4089c-.7598,0-1.3809-.1621-1.8623-.4854-.4824-.3232-.8369-.8301-1.0635-1.5215s-.3398-1.582-.3398-2.6709c0-1.1221.1191-2.0264.3574-2.7129.2373-.6855.6035-1.1846,1.0967-1.4961s1.125-.4678,1.8965-.4678c.6797,0,1.2471.1387,1.7002.417.4541.2773.7939.7305,1.0205,1.3604.2266.6289.3408,1.4707.3408,2.5254v.7314h-4.7793c.0107.6914.0674,1.2588.1699,1.7012.1016.4414.2725.7705.5098.9863.2383.2148.5615.3232.9697.3232.2383,0,.4482-.04.6299-.1191.1807-.0791.3369-.1982.4668-.3574.1309-.1582.2324-.3623.3066-.6123.0732-.249.1162-.5439.1279-.8848h1.5645c-.0117.5332-.085,1.0068-.2217,1.4209-.1357.4141-.3369.7568-.6035,1.0283-.2666.2725-.5928.4795-.9775.6211-.3857.1416-.8223.2129-1.3096.2129ZM80.0049,153.0173h3.1123c0-.4766-.0283-.8818-.085-1.2158-.0566-.335-.1416-.6094-.2549-.8252-.1133-.2148-.2637-.3711-.4512-.4678-.1865-.0967-.4111-.1445-.6709-.1445-.3975,0-.7119.1045-.9443.3145s-.4053.5107-.5186.9014c-.1133.3916-.1758.8701-.1875,1.4375Z" fill="#000" stroke-width="0"/><path d="M86.2813,158.2048v-8.9463h1.3096l.1191,1.2754h.1016c.1025-.3057.2266-.5693.374-.791.1475-.2207.3262-.3906.5361-.5098s.4443-.1787.7061-.1787c.1133,0,.2148.0059.3057.0166.0908.0117.1758.0342.2549.0684v1.6328h-.5605c-.2383,0-.4541.0479-.6465.1445-.1934.0967-.3574.2441-.4932.4424-.1367.1982-.2383.4502-.3066.7568-.0674.3057-.1016.6631-.1016,1.0713v5.0176h-1.5986Z" fill="#000" stroke-width="0"/><path d="M93.0157,158.4089c-.6807,0-1.208-.1934-1.582-.5781-.374-.3857-.5605-1.0322-.5605-1.9395v-6.6328h1.5811v6.2588c0,.2383.0225.4453.0684.6211.0449.1758.1133.3262.2041.4502.0908.125.21.2158.3574.2725.1465.0566.3174.085.5098.085.3066,0,.5781-.0908.8164-.2725.2383-.1807.4248-.4561.5615-.8242.1357-.3691.2041-.8193.2041-1.3525v-5.2383h1.582v8.9463h-1.3105l-.1357-1.1904h-.085c-.1592.3174-.3486.5811-.5693.79-.2217.21-.4707.3633-.749.46-.2773.0957-.5752.1445-.8926.1445Z" fill="#000" stroke-width="0"/><path d="M101.0098,158.4089c-.5332,0-.9844-.0654-1.3525-.1963-.3682-.1299-.666-.3115-.8926-.5439-.2275-.2324-.3945-.5098-.502-.833s-.1611-.6777-.1611-1.0635c0-.0566.002-.1191.0078-.1865.0059-.0684.0146-.1309.0254-.1875h1.4971c-.0117.0684-.0166.1279-.0166.1787v.1445c0,.3057.0566.5674.1699.7822.1133.2158.2744.377.4844.4854.21.1074.4619.1611.7568.1611.2832,0,.5273-.0508.7314-.1533.2041-.1016.3633-.252.4766-.4502s.1699-.4453.1699-.7402c0-.3174-.085-.5693-.2549-.7568s-.3916-.3398-.6641-.459c-.2715-.1191-.5605-.2412-.8672-.3662-.2715-.1016-.5469-.2178-.8242-.3486-.2783-.1299-.5303-.2939-.7568-.4932-.2275-.1982-.4082-.4443-.5449-.7393-.1357-.2949-.2041-.6689-.2041-1.123,0-.4082.0684-.7646.2041-1.0713.1367-.3057.332-.5635.5869-.7734s.5557-.3662.9014-.4678c.3457-.1025.7227-.1533,1.1309-.1533.4307,0,.8135.0508,1.1484.1533.334.1016.6182.252.8506.4502s.4082.4395.5273.7227c.1182.2842.1777.5957.1777.9355,0,.0908-.0029.1816-.0078.2725-.0059.0908-.0146.1699-.0254.2383h-1.4805v-.3574c0-.2607-.0479-.4766-.1445-.6465-.0957-.1699-.2354-.2979-.416-.3828-.1816-.085-.4033-.127-.6641-.127-.2148,0-.4023.0254-.5605.0762-.1592.0508-.2891.1309-.3916.2383-.1016.1074-.1758.2295-.2207.3652-.0459.1367-.0684.2842-.0684.4424,0,.2725.0732.4932.2207.6631.1475.1709.3438.3096.5869.417.2441.1084.5078.2188.791.332.2832.1016.5752.2178.876.3486.3008.1299.5811.292.8418.4844.2607.1934.4678.4424.6211.748.1533.3066.2295.7031.2295,1.1914,0,.4873-.0742.9072-.2207,1.2578-.1475.3516-.3545.6406-.6211.8682-.2666.2266-.5811.3936-.9443.501-.3623.1084-.7646.1621-1.207.1621Z" fill="#000" stroke-width="0"/><path d="M108.3565,158.4089c-.7598,0-1.3799-.1621-1.8623-.4854-.4814-.3232-.8359-.8301-1.0625-1.5215-.2275-.6914-.3408-1.582-.3408-2.6709,0-1.1221.1191-2.0264.3574-2.7129.2383-.6855.6035-1.1846,1.0967-1.4961s1.126-.4678,1.8965-.4678c.6807,0,1.2471.1387,1.7012.417.4531.2773.793.7305,1.0205,1.3604.2266.6289.3398,1.4707.3398,2.5254v.7314h-4.7793c.0117.6914.0684,1.2588.1699,1.7012.1025.4414.2725.7705.5107.9863.2383.2148.5615.3232.9697.3232.2373,0,.4473-.04.6289-.1191s.3369-.1982.4678-.3574c.1299-.1582.2324-.3623.3057-.6123.0742-.249.1162-.5439.1279-.8848h1.5645c-.0107.5332-.085,1.0068-.2207,1.4209s-.3379.7568-.6035,1.0283c-.2666.2725-.5928.4795-.9785.6211s-.8223.2129-1.3096.2129ZM106.7412,153.0173h3.1123c0-.4766-.0283-.8818-.085-1.2158-.0576-.335-.1426-.6094-.2559-.8252-.1133-.2148-.2627-.3711-.4502-.4678s-.4111-.1445-.6719-.1445c-.3975,0-.7119.1045-.9443.3145s-.4053.5107-.5186.9014c-.1133.3916-.1758.8701-.1865,1.4375Z" fill="#000" stroke-width="0"/><path d="M113.0166,158.2048v-8.9463h1.3096l.1191,1.2754h.1025c.1016-.3057.2266-.5693.374-.791.1475-.2207.3252-.3906.5352-.5098s.4453-.1787.7061-.1787c.1133,0,.2158.0059.3066.0166.0898.0117.1758.0342.2549.0684v1.6328h-.5615c-.2383,0-.4531.0479-.6465.1445-.1924.0967-.3564.2441-.4932.4424-.1357.1982-.2383.4502-.3057.7568-.0684.3057-.1025.6631-.1025,1.0713v5.0176h-1.5986Z" fill="#000" stroke-width="0"/><rect x="228.189" y="110.5512" width="113.3858" height="87.874" fill="#e7d5a7" stroke="#312609" stroke-miterlimit="10" stroke-width="1.4173"/><path d="M243.6983,158.2048l3.3672-11.668h2.2285l3.3848,11.668h-1.8545l-.7988-2.8574h-3.7422l-.7988,2.8574h-1.7861ZM246.6573,153.8337h2.9766l-.9688-3.6572c-.0234-.0898-.0547-.209-.0938-.3564-.04-.1475-.083-.3125-.1279-.4932-.0449-.1816-.0879-.3604-.127-.5361-.04-.1758-.0771-.3369-.1113-.4844h-.1016c-.0342.1807-.083.3906-.1445.6289-.0625.2383-.1221.4678-.1787.6885-.0566.2217-.1084.4062-.1533.5527l-.9697,3.6572Z" fill="#000" stroke-width="0"/><path d="M255.9444,158.4089c-.5674,0-1.0488-.1592-1.4463-.4766-.3965-.3174-.6943-.8223-.8926-1.5137s-.2979-1.6045-.2979-2.7383c0-1.0996.0967-1.9873.2891-2.6621.1934-.6738.4854-1.1699.876-1.4873.3916-.3174.8652-.4766,1.4209-.4766.3164,0,.6006.0449.8496.1357.25.0908.4678.2275.6553.4082.1865.1816.3428.4082.4678.6807h.1016v-4.3711h1.582v12.2969h-1.2754l-.1367-1.1738h-.1016c-.1699.4082-.4336.7402-.791.9951s-.791.3828-1.3008.3828ZM256.4375,156.9968c.3623,0,.6543-.1133.876-.3398.2207-.2266.3848-.5615.4932-1.0039.1074-.4414.1611-.9805.1611-1.6152v-.5615c0-.5215-.0371-.9697-.1104-1.3438-.0742-.374-.1729-.6797-.2979-.918s-.2861-.417-.4844-.5361-.417-.1787-.6553-.1787c-.3398,0-.6182.1025-.833.3066-.2158.2041-.374.5215-.4766.9521-.1016.4307-.1523.998-.1523,1.7012v.5947c0,.6807.0479,1.2393.1445,1.6758.0957.4365.2549.7568.4756.9609.2217.2041.5078.3057.8594.3057Z" fill="#000" stroke-width="0"/><path d="M261.3867,158.2048v-8.9463h1.3262l.1191,1.1738h.1025c.1582-.3174.3428-.5791.5527-.7832.209-.2041.4473-.3535.7139-.4502s.5527-.1445.8594-.1445c.4756,0,.873.1045,1.1904.3145s.5439.5645.6797,1.0635h.085c.1709-.3174.3574-.5791.5615-.7832s.4395-.3535.7061-.4502.5586-.1445.876-.1445c.4307,0,.7988.082,1.1055.2461.3057.165.541.4287.7061.791.1641.3633.2461.8447.2461,1.4463v6.667h-1.5811v-6.293c0-.2266-.0205-.4277-.0596-.6035-.04-.1758-.1025-.3232-.1875-.4424s-.1953-.21-.332-.2725c-.1357-.0625-.2949-.0938-.4756-.0938-.2842,0-.5361.0938-.7568.2812-.2217.1865-.3975.4619-.5273.8242-.1309.3633-.1953.8115-.1953,1.3438v5.2559h-1.582v-6.293c0-.2266-.0205-.4277-.0596-.6035-.04-.1758-.0996-.3232-.1787-.4424s-.1875-.21-.3232-.2725-.3008-.0938-.4932-.0938c-.2832,0-.5391.0938-.7656.2812-.2266.1865-.4023.4619-.5273.8242-.124.3633-.1865.8115-.1865,1.3438v5.2559h-1.5986Z" fill="#000" stroke-width="0"/><path d="M272.9854,147.6257v-1.7178h1.5986v1.7178h-1.5986ZM272.9854,158.2048v-8.9463h1.5986v8.9463h-1.5986Z" fill="#000" stroke-width="0"/><path d="M276.4375,158.2048v-8.9463h1.3271l.1191,1.1738h.1016c.1592-.3174.3486-.5791.5703-.7832.2207-.2041.4697-.3535.748-.4502.2773-.0967.5752-.1445.8926-.1445.4531,0,.8389.082,1.1562.2461.3174.165.5615.4316.7314.7998.1709.3682.2559.8594.2559,1.4707v6.6338h-1.5996v-6.2764c0-.2383-.0225-.4443-.0674-.6201-.0459-.1758-.1133-.3232-.2041-.4424s-.207-.21-.3486-.2725c-.1426-.0625-.3145-.0938-.5186-.0938-.2949,0-.5615.0938-.7998.2812-.2383.1865-.4248.4619-.5615.8242-.1357.3633-.2041.8115-.2041,1.3438v5.2559h-1.5986Z" fill="#000" stroke-width="0"/><path d="M284.1084,147.6257v-1.7178h1.5986v1.7178h-1.5986ZM284.1084,158.2048v-8.9463h1.5986v8.9463h-1.5986Z" fill="#000" stroke-width="0"/><path d="M289.9756,158.4089c-.5332,0-.9834-.0654-1.3516-.1963-.3691-.1299-.666-.3115-.8936-.5439-.2266-.2324-.3936-.5098-.501-.833-.1084-.3232-.1621-.6777-.1621-1.0635,0-.0566.0029-.1191.0088-.1865.0059-.0684.0137-.1309.0254-.1875h1.4971c-.0117.0684-.0176.1279-.0176.1787v.1445c0,.3057.0566.5674.1699.7822.1133.2158.2754.377.4854.4854.209.1074.4619.1611.7568.1611.2832,0,.5273-.0508.7314-.1533.2041-.1016.3623-.252.4756-.4502s.1699-.4453.1699-.7402c0-.3174-.085-.5693-.2549-.7568s-.3906-.3398-.6631-.459-.5615-.2412-.8672-.3662c-.2725-.1016-.5479-.2178-.8252-.3486-.2783-.1299-.5303-.2939-.7568-.4932-.2266-.1982-.4082-.4443-.5439-.7393-.1367-.2949-.2041-.6689-.2041-1.123,0-.4082.0674-.7646.2041-1.0713.1357-.3057.3311-.5635.5869-.7734.2549-.21.5547-.3662.9014-.4678.3457-.1025.7227-.1533,1.1309-.1533.4307,0,.8135.0508,1.1475.1533.335.1016.6182.252.8506.4502s.4082.4395.5273.7227c.1191.2842.1787.5957.1787.9355,0,.0908-.0029.1816-.0088.2725s-.0137.1699-.0254.2383h-1.4795v-.3574c0-.2607-.0488-.4766-.1445-.6465-.0967-.1699-.2354-.2979-.417-.3828s-.4023-.127-.6631-.127c-.2158,0-.4023.0254-.5615.0762-.1582.0508-.2891.1309-.3906.2383-.1025.1074-.1758.2295-.2217.3652-.0449.1367-.0674.2842-.0674.4424,0,.2725.0732.4932.2207.6631.1475.1709.3428.3096.5869.417.2432.1084.5068.2188.791.332.2832.1016.5752.2178.876.3486.2998.1299.5801.292.8418.4844.2607.1934.4678.4424.6201.748.1533.3066.2305.7031.2305,1.1914,0,.4873-.0742.9072-.2217,1.2578-.1475.3516-.3545.6406-.6211.8682-.2666.2266-.5811.3936-.9434.501-.3633.1084-.7656.1621-1.208.1621Z" fill="#000" stroke-width="0"/><path d="M296.1153,158.4089c-.4199,0-.7451-.0879-.9775-.2637s-.3916-.417-.4766-.7227c-.085-.3066-.1279-.6406-.1279-1.0039v-5.834h-.7988v-1.3262h.833l.2891-2.5518h1.2588v2.5518h1.208v1.3262h-1.208v5.7148c0,.2607.04.4541.1191.5781.0791.125.2207.1875.4248.1875h.6641v1.0889c-.125.0449-.2588.0869-.4004.127s-.2803.0713-.416.0938c-.1367.0225-.2666.0342-.3916.0342Z" fill="#000" stroke-width="0"/><path d="M298.5645,158.2048v-8.9463h1.3096l.1191,1.2754h.1016c.1025-.3057.2266-.5693.374-.791.1475-.2207.3262-.3906.5361-.5098s.4443-.1787.7061-.1787c.1133,0,.2148.0059.3057.0166.0908.0117.1758.0342.2549.0684v1.6328h-.5605c-.2383,0-.4541.0479-.6465.1445-.1934.0967-.3574.2441-.4932.4424-.1367.1982-.2383.4502-.3066.7568-.0674.3057-.1016.6631-.1016,1.0713v5.0176h-1.5986Z" fill="#000" stroke-width="0"/><path d="M304.9756,158.4089c-.3057,0-.5947-.0459-.8672-.1367-.2715-.0898-.5127-.2314-.7227-.4248-.21-.1924-.374-.4453-.4932-.7568s-.1787-.6885-.1787-1.1309c0-.4873.0879-.9189.2637-1.293s.4453-.6914.8076-.9521c.3633-.2607.8311-.459,1.4033-.5957.5723-.1357,1.2441-.2041,2.0156-.2041v-1.1562c0-.2949-.043-.5439-.1279-.748s-.2207-.3633-.4082-.4766c-.1865-.1133-.4336-.1699-.7393-.1699-.374,0-.6582.0654-.8506.1953-.1934.1309-.3232.3008-.3916.5107-.0674.21-.1016.4453-.1016.7051v.1709h-1.5137c-.0117-.0566-.0176-.1113-.0176-.1621v-.1787c0-.6006.1279-1.0908.3828-1.4707.2559-.3799.6045-.6553,1.0459-.8252.4424-.1699.9473-.2549,1.5137-.2549.5791,0,1.0742.0879,1.4883.2637s.7344.4619.9609.8584c.2266.3975.3408.9307.3408,1.5986v4.7119c0,.1924.042.3369.127.4336s.1963.1445.332.1445h.5098v1.0713c-.1475.0684-.3203.1279-.5186.1787s-.4111.0762-.6377.0762c-.2725,0-.4961-.0537-.6719-.1611s-.3115-.2578-.4082-.4512c-.0967-.1924-.1611-.4023-.1953-.6289h-.085c-.1475.2383-.3262.4531-.5361.6465-.21.1924-.4561.3428-.7393.4502-.2842.1084-.6123.1621-.9873.1621ZM305.4864,157.0652c.2266,0,.4424-.0479.6465-.1445s.3848-.2383.5439-.4258c.1592-.1865.2861-.416.3828-.6885.0957-.2725.1445-.584.1445-.9355v-.8672c-.6914,0-1.2471.0713-1.667.2129-.4189.1416-.7197.3428-.9014.6035s-.2715.5723-.2715.9355c0,.2832.042.5244.127.7227s.2129.3457.3828.4424.374.1445.6123.1445Z" fill="#000" stroke-width="0"/><path d="M312.46,158.4089c-.4199,0-.7461-.0879-.9785-.2637s-.3906-.417-.4756-.7227c-.085-.3066-.1279-.6406-.1279-1.0039v-5.834h-.7998v-1.3262h.834l.2891-2.5518h1.2588v2.5518h1.207v1.3262h-1.207v5.7148c0,.2607.0391.4541.1191.5781.0791.125.2207.1875.4248.1875h.6631v1.0889c-.125.0449-.2578.0869-.3994.127s-.2803.0713-.417.0938c-.1357.0225-.2666.0342-.3906.0342Z" fill="#000" stroke-width="0"/><path d="M317.8848,158.4089c-.7256,0-1.335-.1592-1.8281-.4766s-.8623-.8223-1.1055-1.5137c-.2441-.6914-.3662-1.5869-.3662-2.6875,0-1.1104.1221-2.0088.3662-2.6953.2432-.6855.6123-1.1875,1.1055-1.5049s1.1025-.4766,1.8281-.4766,1.335.1592,1.8281.4766.8643.8193,1.1143,1.5049c.249.6865.374,1.585.374,2.6953,0,1.1006-.125,1.9961-.374,2.6875-.25.6914-.6211,1.1963-1.1143,1.5137s-1.1025.4766-1.8281.4766ZM317.8848,157.0652c.3965,0,.7148-.0996.9521-.2979.2383-.1982.417-.5186.5361-.9609s.1787-1.0205.1787-1.7344v-.6807c0-.7139-.0596-1.293-.1787-1.7344-.1191-.4424-.2979-.7656-.5361-.9697-.2373-.2041-.5557-.3066-.9521-.3066-.3857,0-.7031.1025-.9521.3066-.25.2041-.4287.5273-.5361.9697-.1074.4414-.1611,1.0205-.1611,1.7344v.6807c0,.7139.0537,1.292.1611,1.7344s.2861.7627.5361.9609c.249.1982.5664.2979.9521.2979Z" fill="#000" stroke-width="0"/><path d="M322.6983,158.2048v-8.9463h1.3096l.1191,1.2754h.1016c.1025-.3057.2266-.5693.374-.791.1475-.2207.3262-.3906.5361-.5098s.4443-.1787.7061-.1787c.1133,0,.2148.0059.3057.0166.0908.0117.1758.0342.2549.0684v1.6328h-.5605c-.2383,0-.4541.0479-.6465.1445-.1934.0967-.3574.2441-.4932.4424-.1367.1982-.2383.4502-.3066.7568-.0674.3057-.1016.6631-.1016,1.0713v5.0176h-1.5986Z" fill="#000" stroke-width="0"/><rect x="428.0315" y="110.5512" width="113.3858" height="87.874" fill="#e7d5a7" stroke="#312609" stroke-miterlimit="10" stroke-width="1.4173"/><path d="M475.3369,158.4089c-.7832,0-1.4541-.1309-2.0156-.3916s-.9951-.6943-1.3018-1.3008c-.3057-.6064-.459-1.4092-.459-2.4072v-7.7725h1.752v7.9092c0,.8271.167,1.4424.502,1.8447.334.4033.8418.6045,1.5225.6045.6914,0,1.207-.2012,1.5469-.6045.3408-.4023.5107-1.0176.5107-1.8447v-7.9092h1.752v7.7725c0,.998-.1533,1.8008-.459,2.4072-.3066.6064-.7461,1.04-1.3184,1.3008-.5732.2607-1.25.3916-2.0322.3916Z" fill="#000" stroke-width="0"/><path d="M483.5,158.4089c-.5332,0-.9834-.0654-1.3516-.1963-.3691-.1299-.666-.3115-.8936-.5439-.2266-.2324-.3936-.5098-.501-.833-.1084-.3232-.1621-.6777-.1621-1.0635,0-.0566.0029-.1191.0088-.1865.0059-.0684.0137-.1309.0254-.1875h1.4971c-.0117.0684-.0176.1279-.0176.1787v.1445c0,.3057.0566.5674.1699.7822.1133.2158.2754.377.4854.4854.209.1074.4619.1611.7568.1611.2832,0,.5273-.0508.7314-.1533.2041-.1016.3623-.252.4756-.4502s.1699-.4453.1699-.7402c0-.3174-.085-.5693-.2549-.7568s-.3906-.3398-.6631-.459-.5615-.2412-.8672-.3662c-.2725-.1016-.5479-.2178-.8252-.3486-.2783-.1299-.5303-.2939-.7568-.4932-.2266-.1982-.4082-.4443-.5439-.7393-.1367-.2949-.2041-.6689-.2041-1.123,0-.4082.0674-.7646.2041-1.0713.1357-.3057.3311-.5635.5869-.7734.2549-.21.5547-.3662.9014-.4678.3457-.1025.7227-.1533,1.1309-.1533.4307,0,.8135.0508,1.1475.1533.335.1016.6182.252.8506.4502s.4082.4395.5273.7227c.1191.2842.1787.5957.1787.9355,0,.0908-.0029.1816-.0088.2725s-.0137.1699-.0254.2383h-1.4795v-.3574c0-.2607-.0488-.4766-.1445-.6465-.0967-.1699-.2354-.2979-.417-.3828s-.4023-.127-.6631-.127c-.2158,0-.4023.0254-.5615.0762-.1582.0508-.2891.1309-.3906.2383-.1025.1074-.1758.2295-.2217.3652-.0449.1367-.0674.2842-.0674.4424,0,.2725.0732.4932.2207.6631.1475.1709.3428.3096.5869.417.2432.1084.5068.2188.791.332.2832.1016.5752.2178.876.3486.2998.1299.5801.292.8418.4844.2607.1934.4678.4424.6201.748.1533.3066.2305.7031.2305,1.1914,0,.4873-.0742.9072-.2217,1.2578-.1475.3516-.3545.6406-.6211.8682-.2666.2266-.5811.3936-.9434.501-.3633.1084-.7656.1621-1.208.1621Z" fill="#000" stroke-width="0"/><path d="M490.8477,158.4089c-.7598,0-1.3809-.1621-1.8623-.4854-.4824-.3232-.8369-.8301-1.0635-1.5215s-.3398-1.582-.3398-2.6709c0-1.1221.1191-2.0264.3574-2.7129.2373-.6855.6035-1.1846,1.0967-1.4961s1.125-.4678,1.8965-.4678c.6797,0,1.2471.1387,1.7002.417.4541.2773.7939.7305,1.0205,1.3604.2266.6289.3408,1.4707.3408,2.5254v.7314h-4.7793c.0107.6914.0674,1.2588.1699,1.7012.1016.4414.2725.7705.5098.9863.2383.2148.5615.3232.9697.3232.2383,0,.4482-.04.6299-.1191.1807-.0791.3369-.1982.4668-.3574.1309-.1582.2324-.3623.3066-.6123.0732-.249.1162-.5439.1279-.8848h1.5645c-.0117.5332-.085,1.0068-.2217,1.4209-.1357.4141-.3369.7568-.6035,1.0283-.2666.2725-.5928.4795-.9775.6211-.3857.1416-.8223.2129-1.3096.2129ZM489.2315,153.0173h3.1123c0-.4766-.0283-.8818-.085-1.2158-.0566-.335-.1416-.6094-.2549-.8252-.1133-.2148-.2637-.3711-.4512-.4678-.1865-.0967-.4111-.1445-.6709-.1445-.3975,0-.7119.1045-.9443.3145s-.4053.5107-.5186.9014c-.1133.3916-.1758.8701-.1875,1.4375Z" fill="#000" stroke-width="0"/><path d="M495.5078,158.2048v-8.9463h1.3096l.1191,1.2754h.1016c.1025-.3057.2266-.5693.374-.791.1475-.2207.3262-.3906.5361-.5098s.4443-.1787.7061-.1787c.1133,0,.2148.0059.3057.0166.0908.0117.1758.0342.2549.0684v1.6328h-.5605c-.2383,0-.4541.0479-.6465.1445-.1934.0967-.3574.2441-.4932.4424-.1367.1982-.2383.4502-.3066.7568-.0674.3057-.1016.6631-.1016,1.0713v5.0176h-1.5986Z" fill="#000" stroke-width="0"/><path d="M243.0215,76.8083c-1.4824,0-2.6348-.3555-3.459-1.0654-.8242-.7109-1.2354-1.7539-1.2354-3.1299,0-.1514.0303-.4727.0908-.9639.0596-.4912.1357-1.0889.2266-1.791.0908-.7031.1924-1.4551.3057-2.2568.1143-.8008.2275-1.5908.3408-2.3701.1133-.7783.2148-1.4883.3057-2.1309s.1963-1.3496.3174-2.1211h1.9961c-.1064.7861-.208,1.5049-.3066,2.1543-.0986.6504-.2002,1.3691-.3057,2.1543-.1064.7871-.2158,1.5762-.3291,2.3701s-.2188,1.5312-.3174,2.2109c-.0986.6807-.1738,1.2441-.2266,1.6895-.0537.4463-.0791.707-.0791.7822,0,.8623.2373,1.5156.7139,1.9619s1.1455.6689,2.0068.6689c.9824,0,1.792-.2871,2.4268-.8613.6348-.5752,1.0273-1.4141,1.1787-2.5176l1.4971-10.6133h1.9951l-1.4961,10.5c-.2422,1.7383-.8545,3.0615-1.8369,3.9688-.9834.9062-2.2529,1.3604-3.8096,1.3604Z" fill="#d3f3ea" stroke-width="0"/><path d="M254.6768,76.8083c-.6797,0-1.3037-.1514-1.8701-.4541-.5674-.3018-1.0205-.7285-1.3613-1.2812-.3398-.5508-.5098-1.1973-.5098-1.9385,0-.1211.0039-.2412.0117-.3633.0068-.1201.0186-.2412.0332-.3623h1.9277c-.0146.1211-.0303.2422-.0449.3623-.0156.1221-.0234.2422-.0234.3633,0,.6953.2012,1.21.6016,1.542.4004.333.873.499,1.417.499.5293,0,.9492-.166,1.2588-.499.3096-.332.4648-.7334.4648-1.2021,0-.4531-.1094-.8271-.3291-1.1221-.2188-.2949-.499-.5557-.8389-.7822s-.707-.4463-1.0996-.6582c-.3936-.2109-.7598-.4531-1.0996-.7256-.3408-.2715-.6201-.6084-.8398-1.0088-.2188-.4004-.3281-.8955-.3281-1.4854,0-.6348.1357-1.2051.4082-1.7119.2715-.5068.6836-.9072,1.2354-1.2021s1.2285-.4424,2.0303-.4424c.8164,0,1.4736.1777,1.9727.5332s.8613.8164,1.0889,1.3828c.2266.5674.3398,1.1758.3398,1.8262h-1.9277c0-.8164-.1738-1.3721-.5215-1.667s-.7334-.4424-1.1562-.4424c-.333,0-.6729.1211-1.0205.3633-.3486.2412-.5215.6045-.5215,1.0879,0,.4541.1094.8242.3281,1.1113.2197.2871.499.5332.8389.7373.3408.2041.707.4043,1.1006.6006.3926.1973.7598.4307,1.0996.7031s.6201.6123.8389,1.0205.3291.9375.3291,1.5869c0,.7568-.1592,1.4062-.4766,1.9512-.3174.5439-.7598.96-1.3262,1.2471-.5674.2871-1.2441.4307-2.0303.4307Z" fill="#d3f3ea" stroke-width="0"/><path d="M264.4053,76.8083c-1.2246,0-2.1729-.3516-2.8457-1.0547s-1.0098-1.7949-1.0098-3.2764c0-.6807.0459-1.3955.1367-2.1436s.2451-1.4775.4648-2.1885c.2188-.71.5176-1.3525.8955-1.9268.3779-.5752.8584-1.0322,1.4404-1.3721.5811-.3408,1.2881-.5107,2.1201-.5107,1.1943,0,2.1045.3477,2.7324,1.043.627.6963.9414,1.7773.9414,3.2432,0,.3779-.0117.7783-.0342,1.2021-.0225.4229-.0723.8545-.1475,1.292h-6.5537c-.0156.2422-.0303.4648-.0449.6689-.0156.2041-.0234.3818-.0234.5332,0,.9521.1592,1.6631.4766,2.1318s.8008.7031,1.4512.7031c.665,0,1.2246-.2646,1.6787-.7939.4531-.5293.7324-1.1484.8389-1.8594h1.8818c-.1211.7705-.3662,1.4814-.7373,2.1318-.3701.6494-.8613,1.1758-1.4736,1.5762s-1.3418.6006-2.1885.6006ZM262.7725,69.4607h4.5586c.0146-.1504.0225-.2979.0225-.4424v-.374c0-.876-.1475-1.5381-.4424-1.9844-.2949-.4453-.7295-.6689-1.3037-.6689-.5439,0-1.0059.1699-1.3838.5107-.3779.3398-.6836.7744-.918,1.3037s-.4121,1.0811-.5332,1.6553Z" fill="#d3f3ea" stroke-width="0"/><path d="M270.46,76.5359l1.6787-11.9277h1.4512v1.9043c.1504-.3018.3213-.623.5098-.9639.1895-.3398.4346-.627.7373-.8613s.6807-.3516,1.1338-.3516c.2568,0,.5439.0605.8623.1816l-.2725,1.9277h-.6123c-.5898,0-1.1416.2686-1.6553.8047-.5146.5371-.8467,1.335-.998,2.3926l-.9756,6.8936h-1.8594Z" fill="#d3f3ea" stroke-width="0"/><path d="M282.2295,76.5359l2.1992-15.5566h6.0322c1.4814,0,2.5547.333,3.2207.998.665.666.9971,1.5352.9971,2.6084,0,1.1484-.2949,2.1387-.8838,2.9707-.5898.8311-1.3838,1.4209-2.3818,1.7686l2.0869,7.2109h-2.1094l-1.9951-6.8711h-4.1953l-.9756,6.8711h-1.9951ZM285.4492,67.8503h4.0137c.877,0,1.6182-.2715,2.2227-.8164.6045-.5439.9072-1.2539.9072-2.1309,0-.665-.2041-1.1826-.6123-1.5537-.4082-.3701-1.0127-.5557-1.8145-.5557h-4.0137l-.7031,5.0566Z" fill="#d3f3ea" stroke-width="0"/><path d="M299.3955,76.8083c-1.2246,0-2.1582-.3438-2.8008-1.0322-.6426-.6875-.9629-1.7568-.9629-3.208,0-.6504.0449-1.3496.1357-2.0977.0908-.749.2451-1.4854.4648-2.2119.2188-.7256.5176-1.3828.8955-1.9727s.8584-1.0615,1.4404-1.417,1.2881-.5332,2.1201-.5332c1.2246,0,2.1582.3477,2.8008,1.043.6426.6963.9639,1.7773.9639,3.2432,0,.6504-.0459,1.3496-.1367,2.0977s-.2451,1.4814-.4648,2.1992c-.2188.7188-.5176,1.3691-.8955,1.9502-.3779.583-.8584,1.0518-1.4395,1.4062-.583.3555-1.2891.5332-2.1211.5332ZM299.3955,75.1531c.5596,0,1.0244-.1699,1.3945-.5107.3711-.3398.6729-.7783.9072-1.3154.2344-.5361.4082-1.1025.5215-1.7002s.1934-1.1641.2383-1.7012c.0459-.5361.0684-.9639.0684-1.2812,0-.876-.1514-1.5381-.4541-1.9844-.3018-.4453-.7627-.6689-1.3828-.6689-.5439,0-1.0059.167-1.3838.499-.3779.333-.6797.7598-.9062,1.2812-.2275.5215-.4014,1.0742-.5225,1.6553-.1211.582-.2041,1.1309-.249,1.6445s-.0684.9297-.0684,1.2471c0,.9521.1436,1.6631.4316,2.1318.2861.4688.7559.7031,1.4053.7031Z" fill="#d3f3ea" stroke-width="0"/><path d="M305.5869,76.5359l2.2676-16.3955h1.8594l-2.29,16.3955h-1.8369Z" fill="#d3f3ea" stroke-width="0"/><path d="M314,76.8083c-1.2246,0-2.1738-.3516-2.8467-1.0547s-1.0088-1.7949-1.0088-3.2764c0-.6807.0449-1.3955.1357-2.1436s.2461-1.4775.4648-2.1885c.2197-.71.5176-1.3525.8965-1.9268.377-.5752.8574-1.0322,1.4395-1.3721.582-.3408,1.2891-.5107,2.1201-.5107,1.1943,0,2.1055.3477,2.7334,1.043.627.6963.9404,1.7773.9404,3.2432,0,.3779-.0107.7783-.0342,1.2021-.0225.4229-.0713.8545-.1475,1.292h-6.5537c-.0146.2422-.0303.4648-.0449.6689-.0156.2041-.0225.3818-.0225.5332,0,.9521.1582,1.6631.4756,2.1318.3184.4688.8018.7031,1.4521.7031.665,0,1.2246-.2646,1.6777-.7939s.7334-1.1484.8389-1.8594h1.8828c-.1211.7705-.3672,1.4814-.7373,2.1318-.3711.6494-.8623,1.1758-1.4736,1.5762-.6123.4004-1.3428.6006-2.1885.6006ZM312.3672,69.4607h4.5576c.0146-.1504.0225-.2979.0225-.4424v-.374c0-.876-.1475-1.5381-.4414-1.9844-.2949-.4453-.7295-.6689-1.3047-.6689-.5439,0-1.0049.1699-1.3828.5107-.3779.3398-.6846.7744-.9189,1.3037s-.4121,1.0811-.5322,1.6553Z" fill="#d3f3ea" stroke-width="0"/><path d="M323.9092,76.8083c-.6807,0-1.3037-.1514-1.8711-.4541-.5664-.3018-1.0205-.7285-1.3604-1.2812-.3398-.5508-.5107-1.1973-.5107-1.9385,0-.1211.0039-.2412.0117-.3633.0078-.1201.0186-.2412.0342-.3623h1.9277c-.0156.1211-.0312.2422-.0459.3623-.0146.1221-.0225.2422-.0225.3633,0,.6953.2002,1.21.6006,1.542.4004.333.873.499,1.418.499.5283,0,.9482-.166,1.2578-.499.3105-.332.4658-.7334.4658-1.2021,0-.4531-.1104-.8271-.3291-1.1221-.2197-.2949-.499-.5557-.8389-.7822-.3408-.2266-.707-.4463-1.1006-.6582-.3926-.2109-.7598-.4531-1.0996-.7256-.3398-.2715-.6201-.6084-.8389-1.0088-.2197-.4004-.3291-.8955-.3291-1.4854,0-.6348.1367-1.2051.4082-1.7119.2725-.5068.6846-.9072,1.2363-1.2021s1.2275-.4424,2.0293-.4424c.8164,0,1.4746.1777,1.9727.5332.499.3555.8623.8164,1.0889,1.3828.2266.5674.3398,1.1758.3398,1.8262h-1.9268c0-.8164-.1748-1.3721-.5225-1.667s-.7334-.4424-1.1562-.4424c-.333,0-.6729.1211-1.0205.3633-.3477.2412-.5215.6045-.5215,1.0879,0,.4541.1094.8242.3291,1.1113.2188.2871.499.5332.8389.7373s.7061.4043,1.0996.6006c.3936.1973.7598.4307,1.0996.7031.3408.2725.6201.6123.8398,1.0205.2188.4082.3281.9375.3281,1.5869,0,.7568-.1582,1.4062-.4756,1.9512-.3174.5439-.7598.96-1.3271,1.2471-.5664.2871-1.2432.4307-2.0293.4307Z" fill="#d3f3ea" stroke-width="0"/><path d="M162.0996,51.0242v-19.4463h15.166v3.1465h-11.4805v4.791h10.2324v3.1465h-10.2324v5.2158h11.6504v3.1465h-15.3359Z" fill="#fff" stroke-width="0"/><path d="M180.8369,51.0242v-14.9102h2.8916l.2832,2.3525h.1982c.1885-.4727.4209-.9121.6943-1.3184.2744-.4062.6279-.7373,1.0635-.9922.4346-.2549.9639-.3828,1.5869-.3828.3027,0,.5811.0283.8369.085.2549.0566.4482.1143.5811.1709v3.2598h-1.0488c-.5859,0-1.1055.0801-1.5596.2402-.4531.1611-.8359.4111-1.1475.752-.3125.3398-.5439.7646-.6953,1.2754-.1514.5098-.2266,1.1055-.2266,1.7852v7.6826h-3.458Z" fill="#fff" stroke-width="0"/><path d="M199.0069,51.364c-.9639,0-1.8428-.1943-2.6367-.5811-.793-.3867-1.4355-.9678-1.9268-1.7432h-.1992l-.2832,1.9844h-2.8633v-20.4951h3.459v7.3135h.1699c.3018-.4531.6709-.8359,1.1055-1.1475.4346-.3125.9355-.543,1.502-.6943.5674-.1514,1.1914-.2275,1.8711-.2275,1.1152,0,2.1025.2744,2.9619.8223.8604.5488,1.5352,1.3936,2.0273,2.5371.4912,1.1436.7373,2.6123.7373,4.4082,0,1.8135-.2412,3.2979-.7236,4.4502-.4814,1.1523-1.1621,2.0029-2.041,2.5508-.8779.5479-1.9316.8223-3.1602.8223ZM197.9297,48.3874c.8506,0,1.5254-.165,2.0264-.4961.501-.3301.8604-.8359,1.0771-1.5166.2178-.6797.3262-1.54.3262-2.5791v-.3965c0-1.0586-.1084-1.9326-.3262-2.6221-.2168-.6904-.5762-1.2002-1.0771-1.5312-.501-.3301-1.1758-.4961-2.0264-.4961-.5859,0-1.0918.1045-1.5166.3115-.4248.209-.7754.5107-1.0488.9072-.2744.3975-.4775.8887-.6094,1.4746-.1328.5859-.1982,1.2471-.1982,1.9844v.3682c0,.9824.1172,1.8145.3545,2.4941.2354.6807.6045,1.2002,1.1055,1.5596.5.3594,1.1377.5381,1.9131.5381Z" fill="#fff" stroke-width="0"/><path d="M213.6905,51.364c-1.0771,0-2.0225-.1182-2.835-.3545s-1.4932-.5615-2.041-.9775-.959-.9023-1.2324-1.46c-.2744-.5576-.4111-1.167-.4111-1.8281,0-.0947.0039-.1797.0137-.2559.0098-.0752.0146-.1318.0146-.1699h3.4014v.2275c.0186.5098.1797.9209.4824,1.2324.3018.3115.6982.5342,1.1904.666.4912.1328,1.0107.1992,1.5586.1992.4912,0,.959-.0527,1.4033-.1562.4434-.1035.8125-.2734,1.1055-.5107.293-.2354.4395-.543.4395-.9209,0-.4912-.1895-.8691-.5674-1.1338s-.874-.4824-1.4883-.6523-1.2705-.3496-1.9697-.5381c-.623-.1699-1.2471-.3594-1.8711-.5674-.623-.207-1.1855-.4717-1.6865-.793s-.9072-.7373-1.2188-1.248c-.3115-.5098-.4678-1.1426-.4678-1.8984,0-.7373.1602-1.3799.4824-1.9277.3203-.5479.7646-1.0068,1.332-1.375.5664-.3682,1.2373-.6475,2.0127-.8359.7744-.1895,1.6152-.2842,2.5225-.2842.8877,0,1.6963.0947,2.4238.2842.7275.1885,1.3604.458,1.8994.8076.5381.3496.9541.7754,1.2471,1.2754.293.501.4395,1.0537.4395,1.6582,0,.1328-.0049.2646-.0146.3975-.0098.1318-.0137.208-.0137.2266h-3.373v-.1982c0-.3594-.1094-.667-.3262-.9219-.2178-.2549-.5293-.458-.9355-.6094s-.9121-.2266-1.5166-.2266c-.4531,0-.8506.0381-1.1904.1133-.3398.0762-.6191.1797-.8359.3115-.2178.1328-.3828.2842-.4961.4541-.1143.1699-.1709.3594-.1709.5664,0,.3594.1426.6426.4258.8506s.666.3877,1.1475.5391c.4824.1514,1.0068.3115,1.5732.4814.6807.1895,1.3799.3828,2.0977.5811.7188.1982,1.3848.4492,1.999.751.6133.3027,1.1094.7275,1.4883,1.2764.3779.5479.5664,1.2754.5664,2.1826,0,.8691-.165,1.6113-.4961,2.2246-.3311.6143-.793,1.1055-1.3887,1.4746-.5957.3682-1.2949.6377-2.0977.8076-.8037.1699-1.6777.2549-2.6221.2549Z" fill="#fff" stroke-width="0"/><path d="M223.2139,51.0242v-20.4951h3.459v20.4951h-3.459Z" fill="#fff" stroke-width="0"/><path d="M234.1846,51.364c-.416,0-.8936-.0518-1.4316-.1562-.5391-.1035-1.0586-.2969-1.5596-.5811-.501-.2832-.9121-.7031-1.2324-1.2607-.3223-.5576-.4824-1.29-.4824-2.1973,0-1.0205.2266-1.8662.6807-2.5371.4531-.6699,1.0908-1.1992,1.9131-1.5869s1.8047-.6611,2.9482-.8223c1.1426-.1602,2.3955-.2412,3.7559-.2412v-1.2188c0-.4346-.0664-.8223-.1982-1.1621-.1328-.3398-.374-.6094-.7227-.8076-.3506-.1982-.875-.2979-1.5732-.2979-.7002,0-1.248.085-1.6445.2549s-.6709.3779-.8223.624c-.1514.2451-.2266.501-.2266.7646v.3975h-3.3447c-.0195-.0947-.0283-.1885-.0283-.2832v-.3408c0-.8506.2549-1.5869.7656-2.2109.5098-.623,1.2188-1.1006,2.126-1.4316.9062-.3301,1.9551-.4961,3.1465-.4961,1.3604,0,2.4795.1895,3.3584.5674s1.5352.917,1.9707,1.6152c.4346.7002.6514,1.5498.6514,2.5518v7.0293c0,.3594.1035.6152.3125.7656.207.1514.4336.2266.6797.2266h.9072v2.3818c-.1895.0752-.4629.165-.8223.2686-.3594.1045-.8037.1562-1.332.1562-.4912,0-.9307-.0811-1.3184-.2412s-.7129-.3916-.9775-.6943c-.2646-.3018-.4541-.6611-.5674-1.0771h-.1699c-.3213.3975-.7041.751-1.1475,1.0635-.4443.3115-.9639.5527-1.5596.7227s-1.2803.2549-2.0547.2549ZM235.2334,48.529c.5664,0,1.0723-.085,1.5166-.2549.4434-.1699.8115-.4062,1.1055-.709.292-.3018.5195-.6699.6797-1.1055.1602-.4336.2412-.9062.2412-1.417v-.6807c-1.04,0-1.998.0664-2.877.1992-.8789.1318-1.5781.3779-2.0977.7363-.5205.3594-.7793.8701-.7793,1.5312,0,.3398.0801.6377.2402.8926s.4062.4541.7373.5957c.3301.1416.7412.2119,1.2334.2119Z" fill="#fff" stroke-width="0"/><path d="M246.1182,51.0242v-14.9102h2.8916l.2832,1.9844h.1982c.3398-.4541.7412-.8555,1.2051-1.2051.4629-.3496.9922-.624,1.5869-.8223.5957-.1982,1.252-.2979,1.9707-.2979.9443,0,1.7803.1709,2.5088.5107.7266.3398,1.2988.8887,1.7148,1.6436.415.7568.623,1.7676.623,3.0332v10.0635h-3.4863v-9.4395c0-.5293-.0615-.9688-.1846-1.3184s-.3018-.6328-.5381-.8506c-.2363-.2168-.5244-.373-.8652-.4678-.3398-.0938-.7178-.1416-1.1338-.1416-.623,0-1.1855.1514-1.6865.4541-.501.3018-.8975.7178-1.1904,1.2471s-.4395,1.1436-.4395,1.8428v8.6738h-3.458Z" fill="#fff" stroke-width="0"/><path d="M267.8594,51.364c-1.209,0-2.2578-.2744-3.1465-.8223-.8877-.5479-1.5732-1.3984-2.0547-2.5508s-.7227-2.6367-.7227-4.4502c0-1.7959.2451-3.2646.7363-4.4082s1.1719-1.9883,2.041-2.5371c.8691-.5479,1.8525-.8223,2.9482-.8223.6807,0,1.3037.0762,1.8711.2275s1.0674.3818,1.502.6943c.4346.3115.8037.6943,1.1055,1.1475h.1709v-7.3135h3.458v20.4951h-2.8633l-.2832-1.9844h-.1982c-.4727.7754-1.1104,1.3564-1.9141,1.7432-.8027.3867-1.6865.5811-2.6504.5811ZM268.9366,48.3874c.7939,0,1.4365-.1787,1.9277-.5381s.8555-.8789,1.0918-1.5596c.2354-.6797.3545-1.5117.3545-2.4941v-.3682c0-.7373-.0664-1.3984-.1992-1.9844-.1318-.5859-.335-1.0771-.6094-1.4746-.2734-.3965-.623-.6982-1.0488-.9072-.4248-.207-.9307-.3115-1.5166-.3115-.8496,0-1.5264.166-2.0264.4961-.501.3311-.8604.8408-1.0771,1.5312-.2178.6895-.3262,1.5635-.3262,2.6221v.3965c0,1.0391.1084,1.8994.3262,2.5791.2168.6807.5762,1.1865,1.0771,1.5166.5.3311,1.1768.4961,2.0264.4961Z" fill="#fff" stroke-width="0"/><path d="M278.4043,51.0242l3.458-19.4746h14.9668l-.708,3.9688h-9.8652l-.7646,4.1953h8.6738l-.6807,3.8838h-8.6455l-1.332,7.4268h-5.1025Z" fill="#fff" stroke-width="0"/><path d="M306.2403,51.364c-1.9092,0-3.5391-.2881-4.8896-.8643-1.3516-.5762-2.3809-1.4365-3.0898-2.5801-.709-1.1426-1.0625-2.5654-1.0625-4.2656,0-.4346.0234-.8652.0703-1.29s.1084-.8545.1846-1.29c.3584-2.1162,1.0244-3.9062,1.998-5.3711s2.2578-2.5801,3.8555-3.3447c1.5967-.7656,3.5098-1.1484,5.7402-1.1484,1.9277,0,3.5664.2881,4.918.8643,1.3506.5771,2.3809,1.4414,3.0898,2.5938.709,1.1533,1.0625,2.5898,1.0625,4.3086,0,.3975-.0186.8037-.0566,1.2197-.0381.415-.0947.8311-.1699,1.2471-.3594,2.1357-1.0342,3.9395-2.0264,5.4141-.9922,1.4736-2.292,2.5938-3.8975,3.3584-1.6064.7656-3.5156,1.1484-5.7266,1.1484ZM306.4951,47.3953c.8506,0,1.6162-.127,2.2969-.3828.6797-.2549,1.2705-.6182,1.7715-1.0908.5-.4727.916-1.0488,1.2471-1.7295.3301-.6797.5713-1.4551.7227-2.3242.0752-.4346.1367-.8027.1846-1.1055.0469-.3018.085-.5527.1133-.751s.0469-.3643.0566-.4961c.0088-.1318.0137-.2646.0137-.3965,0-.8125-.1553-1.5166-.4678-2.1123-.3115-.5957-.7744-1.0488-1.3887-1.3604-.6143-.3125-1.375-.4678-2.2812-.4678-.832,0-1.5879.123-2.2686.3682-.6797.2461-1.2705.6094-1.7715,1.0918-.501.4814-.917,1.0625-1.2471,1.7432-.3311.6797-.5723,1.4453-.7227,2.2959-.0762.4531-.1377.832-.1846,1.1338-.0469.3027-.0801.5527-.0986.751-.0195.1982-.0332.3643-.043.4961-.0098.1328-.0137.2646-.0137.3975,0,.8125.1504,1.5117.4531,2.0977.3018.5859.7559,1.0391,1.3604,1.3604s1.3613.4814,2.2676.4814Z" fill="#fff" stroke-width="0"/><path d="M319.5635,51.0242l3.4297-19.4746h10.9131c1.3418,0,2.4521.2129,3.3311.6377.8789.4258,1.5352,1.0068,1.9697,1.7441.4346.7363.6523,1.5869.6523,2.5508,0,1.1533-.1797,2.1738-.5391,3.0615-.3594.8887-.8643,1.6436-1.5166,2.2676-.6514.624-1.4414,1.125-2.3662,1.502l2.5508,7.7109h-5.5557l-2.0127-6.8604h-4.5645l-1.2188,6.8604h-5.0732ZM326.5362,40.3943h5.0459c.5283,0,1.0205-.1279,1.4736-.3828.4541-.2549.8223-.6191,1.1055-1.0918.2842-.4717.4258-1.0107.4258-1.6152,0-.5859-.1699-1.0488-.5107-1.3896-.3398-.3398-.8125-.5098-1.417-.5098h-5.2725l-.8506,4.9893Z" fill="#fff" stroke-width="0"/><path d="M340.7949,51.0242l3.458-19.4746h7.1152l.8506,8.6748c.0371.3213.0752.7461.1133,1.2754.0371.5293.0752,1.0723.1133,1.6299s.0664,1.0625.085,1.5166h.1982c.1885-.4727.3828-.959.5811-1.46.1992-.501.4014-1.0107.6094-1.5312.208-.5195.416-1.0059.624-1.459l3.9404-8.6465h7.4268l-3.459,19.4746h-4.9316l1.7002-9.5244c.0947-.5479.208-1.1436.3408-1.7861.1318-.6426.2637-1.2568.3965-1.8428.1318-.585.2451-1.0488.3398-1.3887h-.1982c-.0752.208-.1748.4629-.2979.7656s-.2402.5947-.3535.8789c-.1133.2832-.2178.5293-.3125.7363l-5.6123,12.1611h-4.2803l-1.1621-12.0195c-.0195-.3965-.0479-.8262-.085-1.2891-.0381-.4629-.0664-.8652-.085-1.2051h-.1982c-.0381.4912-.0811,1.0439-.1279,1.6582-.0479.6143-.1045,1.2148-.1699,1.7998-.0664.5859-.1377,1.0967-.2129,1.5312l-1.6729,9.5244h-4.7334Z" fill="#fff" stroke-width="0"/><path d="M366.7032,51.0242l3.458-19.4746h16.1006l-.708,3.9688h-10.999l-.6514,3.6572h9.6094l-.6807,3.8828h-9.6094l-.709,3.9971h11.1973l-.709,3.9688h-16.2988Z" fill="#fff" stroke-width="0"/><path d="M386.5459,51.0242l3.4297-19.4746h10.9131c1.3418,0,2.4521.2129,3.3311.6377.8789.4258,1.5352,1.0068,1.9697,1.7441.4346.7363.6523,1.5869.6523,2.5508,0,1.1533-.1797,2.1738-.5391,3.0615-.3594.8887-.8643,1.6436-1.5166,2.2676-.6514.624-1.4414,1.125-2.3662,1.502l2.5508,7.7109h-5.5557l-2.0127-6.8604h-4.5645l-1.2188,6.8604h-5.0732ZM393.5186,40.3943h5.0459c.5283,0,1.0205-.1279,1.4736-.3828.4541-.2549.8223-.6191,1.1055-1.0918.2842-.4717.4258-1.0107.4258-1.6152,0-.5859-.1699-1.0488-.5107-1.3896-.3398-.3398-.8125-.5098-1.417-.5098h-5.2725l-.8506,4.9893Z" fill="#fff" stroke-width="0"/><polygon points="156.6142 110.5512 156.6142 198.4252 213.3071 153.0709 156.6142 110.5512" fill="#c39623" stroke="#312609" stroke-miterlimit="10" stroke-width="1.4173"/><polygon points="356.4567 110.5512 356.4567 198.4252 413.1496 153.0709 356.4567 110.5512" fill="#c39623" stroke="#312609" stroke-miterlimit="10" stroke-width="1.4173"/></svg>